# Blender 4.4.0
# www.blender.org
mtllib brazo1ZIM.mtl
o BRAZO_2
v -0.018992 0.012141 0.008541
v 0.018179 0.012496 0.006482
v 0.001295 0.023152 0.000065
v -0.019514 -0.019894 -0.002297
v 0.024933 -0.018823 0.001581
v 0.005006 -0.030074 -0.016916
v -0.003399 -0.011433 -0.090997
v -0.003399 -0.011433 -0.090997
v -0.004839 0.002739 -0.090128
v -0.004839 0.002739 -0.090128
v 0.001246 0.001495 -0.087895
v -0.012731 0.001050 -0.086900
v -0.012731 0.001050 -0.086900
v 0.003675 -0.009610 -0.088377
v -0.012443 -0.010059 -0.087664
v -0.012443 -0.010059 -0.087664
v -0.003388 0.018735 -0.061429
v -0.021120 0.009107 -0.057676
v 0.010338 0.009927 -0.059777
v -0.020795 -0.018051 -0.061495
v 0.000836 -0.026919 -0.067572
v 0.016383 -0.017069 -0.061762
v 0.010579 0.020975 0.002183
v -0.009703 0.020878 0.004257
v 0.017688 -0.027531 -0.009509
v -0.008961 -0.028254 -0.012629
v -0.022813 -0.003945 0.006055
v 0.024117 -0.003125 0.007100
v -0.004505 -0.004372 -0.093493
v -0.001640 0.002438 -0.089835
v -0.008867 0.002196 -0.089274
v -0.008867 0.002196 -0.089274
v 0.000599 -0.010847 -0.090521
v -0.008173 -0.011087 -0.090127
v -0.012572 -0.004508 -0.088615
v 0.002022 -0.004070 -0.089469
v -0.004524 0.011347 -0.080062
v -0.021346 0.011312 -0.027360
v 0.004977 0.005546 -0.079301
v -0.016628 -0.013947 -0.079482
v 0.002988 -0.029804 -0.044467
v 0.021449 -0.018685 -0.032934
v -0.001314 0.022187 -0.033354
v -0.016992 0.004882 -0.077769
v 0.014687 0.011994 -0.029589
v -0.021354 -0.019772 -0.034387
v -0.001457 -0.019875 -0.082826
v 0.009212 -0.013247 -0.080296
v -0.024162 -0.004522 -0.058416
v 0.015304 -0.003485 -0.059777
v 0.011026 -0.024681 -0.065419
v -0.011210 -0.025270 -0.065541
v -0.012968 0.016621 -0.059538
v 0.004263 0.017068 -0.061020
v 0.000770 0.010285 -0.079955
v -0.011235 0.009909 -0.078973
v -0.007818 -0.004446 -0.092684
v -0.001796 -0.004258 -0.093084
v -0.009839 -0.018774 -0.081640
v 0.005522 -0.018369 -0.082007
v 0.008290 -0.003787 -0.079543
v -0.018943 -0.004565 -0.078205
v -0.024925 -0.004291 -0.028883
v 0.020405 -0.003274 -0.029330
v 0.014929 -0.027284 -0.039962
v -0.010698 -0.027970 -0.041349
v -0.012152 0.019860 -0.030366
v 0.007552 0.020191 -0.032200
vn 0.1772 0.9657 -0.1899
vn 0.3844 0.9187 0.0908
vn 0.4927 0.7845 -0.3764
vn 0.0004 0.8394 -0.5435
vn 0.5438 0.7579 0.3603
vn 0.8851 0.4613 -0.0622
vn 0.8874 -0.0120 -0.4608
vn 0.4576 0.3582 -0.8138
vn -0.1764 0.5685 -0.8035
vn -0.8298 0.5096 0.2274
vn -0.4045 0.9142 0.0233
vn -0.4660 0.6713 -0.5764
vn -0.8748 0.2397 -0.4210
vn -0.1765 0.5685 -0.8035
vn -0.3603 0.2280 -0.9046
vn -0.4864 -0.1489 -0.8610
vn -0.2206 0.0097 -0.9753
vn -0.4589 -0.1905 -0.8678
vn -0.3603 0.2281 -0.9045
vn -0.1890 -0.5525 -0.8118
vn -0.4731 -0.5618 -0.6786
vn -0.7107 -0.5158 -0.4785
vn -0.6250 -0.3470 -0.6993
vn -0.4864 -0.1488 -0.8610
vn 0.8979 0.2095 -0.3872
vn 0.4978 0.1526 -0.8537
vn 0.8594 0.4194 -0.2924
vn 0.5162 -0.1025 -0.8503
vn -0.0343 -0.9769 -0.2110
vn -0.6347 -0.7703 -0.0620
vn -0.5796 -0.6962 -0.4236
vn -0.1205 -0.8252 -0.5519
vn -0.9651 -0.2359 0.1133
vn -0.8949 -0.4015 -0.1950
vn 0.9271 0.3382 0.1618
vn 0.8125 -0.5813 -0.0448
vn 0.7478 -0.3692 -0.5518
vn 0.9186 0.3895 -0.0671
vn 0.7712 0.5747 0.2737
vn 0.9041 0.4224 -0.0650
vn -0.9716 0.1480 0.1844
vn -0.9414 -0.1230 -0.3142
vn -0.7107 -0.5158 -0.4784
vn -0.1967 -0.8950 0.4004
vn -0.3940 0.2455 0.8857
vn -0.9872 0.1037 -0.1209
vn -0.9579 -0.2358 -0.1637
vn -0.2442 0.4133 0.8772
vn -0.8986 0.4341 -0.0633
vn 0.5236 0.8023 0.2867
vn 0.0574 -0.0561 0.9968
vn 0.8403 0.4905 -0.2310
vn 0.8103 0.5611 -0.1692
vn -0.1898 -0.0056 0.9818
vn 0.8603 0.4229 -0.2847
vn 0.4172 -0.2371 0.8773
vn 0.8069 -0.5095 -0.2987
vn -0.1343 -0.9768 0.1669
vn 0.1543 -0.9841 -0.0881
vn -0.4957 -0.5528 0.6698
vn -0.5371 -0.8263 -0.1695
vn -0.2063 0.3751 0.9037
vn -0.5031 0.8575 -0.1075
vn 0.0888 0.8465 0.5249
vn 0.0390 0.9925 -0.1160
vn 0.6629 0.0524 0.7469
vn 0.4293 0.8896 -0.1558
vt 0.089610 0.143651
vt 0.078965 0.135542
vt 0.077889 0.133540
vt 0.088478 0.142918
vt 0.068016 0.120548
vt 0.067849 0.119522
vt 0.068198 0.115427
vt 0.075980 0.123758
vt 0.087346 0.142186
vt 0.140677 0.123235
vt 0.118779 0.138682
vt 0.118739 0.139254
vt 0.142330 0.125449
vt 0.087346 0.142186
vt 0.119552 0.140981
vt 0.151758 0.139776
vt 0.090527 0.100273
vt 0.120034 0.098371
vt 0.119552 0.140981
vt 0.088631 0.070787
vt 0.119977 0.065959
vt 0.158479 0.048193
vt 0.155119 0.093985
vt 0.151758 0.139776
vt 0.062870 0.097885
vt 0.072150 0.099038
vt 0.060396 0.080391
vt 0.068361 0.074634
vt 0.088027 0.052082
vt 0.119195 0.049617
vt 0.119589 0.053089
vt 0.087768 0.057118
vt 0.155849 0.048305
vt 0.157164 0.048249
vt 0.088631 0.070787
vt 0.056179 0.071374
vt 0.066205 0.057666
vt 0.066404 0.062632
vt 0.057198 0.074893
vt 0.058530 0.095763
vt 0.059317 0.096976
vt 0.151334 0.090853
vt 0.153026 0.091903
vt 0.158479 0.048193
vt 0.148852 0.048604
vt 0.147321 0.089859
vt 0.149200 0.090001
vt 0.152350 0.048455
vt 0.145789 0.131114
vt 0.140081 0.122723
vt 0.068475 0.132140
vt 0.056087 0.091866
vt 0.057834 0.093986
vt 0.068373 0.121788
vt 0.043700 0.051592
vt 0.054651 0.066416
vt 0.064829 0.044056
vt 0.066106 0.052013
vt 0.085959 0.036520
vt 0.088366 0.046667
vt 0.117406 0.042562
vt 0.118485 0.046561
vt 0.120709 0.139332
vt 0.119391 0.138589
vt 0.095629 0.147549
vt 0.092619 0.145600
vt 0.082052 0.139844
vt 0.080404 0.137123
s 1
usemtl Body
f 17/1/1 54/2/2 55/3/3
f 17/1/1 55/3/3 37/4/4
f 54/2/2 19/5/5 39/6/6
f 54/2/2 39/6/6 55/3/3
f 55/3/3 39/6/6 11/7/7
f 55/3/3 11/7/7 30/8/8
f 37/4/4 55/3/3 30/8/8
f 37/4/4 30/8/8 9/9/9
f 18/10/10 53/11/11 56/12/12
f 18/10/10 56/12/12 44/13/13
f 53/11/11 17/1/1 37/4/4
f 53/11/11 37/4/4 56/12/12
f 56/12/12 37/4/4 10/14/14
f 56/12/12 10/14/14 32/15/15
f 44/13/13 56/12/12 32/15/15
f 44/13/13 32/15/15 12/16/16
f 9/9/9 29/17/17 57/18/18
f 9/9/9 57/18/18 31/19/19
f 29/17/17 8/20/20 34/21/21
f 29/17/17 34/21/21 57/18/18
f 57/18/18 34/21/21 15/22/22
f 57/18/18 15/22/22 35/23/23
f 31/19/19 57/18/18 35/23/23
f 31/19/19 35/23/23 13/24/24
f 11/7/7 36/25/25 58/26/26
f 11/7/7 58/26/26 30/8/8
f 36/25/25 14/27/27 33/28/28
f 36/25/25 33/28/28 58/26/26
f 58/26/26 33/28/28 8/20/20
f 58/26/26 8/20/20 29/17/17
f 30/8/8 58/26/26 29/17/17
f 30/8/8 29/17/17 9/9/9
f 21/29/29 52/30/30 59/31/31
f 21/29/29 59/31/31 47/32/32
f 52/30/30 20/33/33 40/34/34
f 52/30/30 40/34/34 59/31/31
f 59/31/31 40/34/34 15/22/22
f 59/31/31 15/22/22 34/21/21
f 47/32/32 59/31/31 34/21/21
f 47/32/32 34/21/21 7/35/20
f 22/36/35 51/37/36 60/38/37
f 22/36/35 60/38/37 48/39/38
f 51/37/36 21/29/29 47/32/32
f 51/37/36 47/32/32 60/38/37
f 60/38/37 47/32/32 7/35/20
f 60/38/37 7/35/20 33/28/28
f 48/39/38 60/38/37 33/28/28
f 48/39/38 33/28/28 14/27/27
f 19/5/5 50/40/39 61/41/40
f 19/5/5 61/41/40 39/6/6
f 50/40/39 22/36/35 48/39/38
f 50/40/39 48/39/38 61/41/40
f 61/41/40 48/39/38 14/27/27
f 61/41/40 14/27/27 36/25/25
f 39/6/6 61/41/40 36/25/25
f 39/6/6 36/25/25 11/7/7
f 20/33/33 49/42/41 62/43/42
f 20/33/33 62/43/42 40/34/34
f 49/42/41 18/10/10 44/13/13
f 49/42/41 44/13/13 62/43/42
f 62/43/42 44/13/13 12/16/16
f 62/43/42 12/16/16 35/23/23
f 40/34/34 62/43/42 35/23/23
f 40/34/34 35/23/23 16/44/43
f 4/45/44 27/46/45 63/47/46
f 4/45/44 63/47/46 46/48/47
f 27/46/45 1/49/48 38/50/49
f 27/46/45 38/50/49 63/47/46
f 63/47/46 38/50/49 18/10/10
f 63/47/46 18/10/10 49/42/41
f 46/48/47 63/47/46 49/42/41
f 46/48/47 49/42/41 20/33/33
f 2/51/50 28/52/51 64/53/52
f 2/51/50 64/53/52 45/54/53
f 28/52/51 5/55/54 42/56/55
f 28/52/51 42/56/55 64/53/52
f 64/53/52 42/56/55 22/36/35
f 64/53/52 22/36/35 50/40/39
f 45/54/53 64/53/52 50/40/39
f 45/54/53 50/40/39 19/5/5
f 5/55/54 25/57/56 65/58/57
f 5/55/54 65/58/57 42/56/55
f 25/57/56 6/59/58 41/60/59
f 25/57/56 41/60/59 65/58/57
f 65/58/57 41/60/59 21/29/29
f 65/58/57 21/29/29 51/37/36
f 42/56/55 65/58/57 51/37/36
f 42/56/55 51/37/36 22/36/35
f 6/59/58 26/61/60 66/62/61
f 6/59/58 66/62/61 41/60/59
f 26/61/60 4/45/44 46/48/47
f 26/61/60 46/48/47 66/62/61
f 66/62/61 46/48/47 20/33/33
f 66/62/61 20/33/33 52/30/30
f 41/60/59 66/62/61 52/30/30
f 41/60/59 52/30/30 21/29/29
f 1/49/48 24/63/62 67/64/63
f 1/49/48 67/64/63 38/50/49
f 24/63/62 3/65/64 43/66/65
f 24/63/62 43/66/65 67/64/63
f 67/64/63 43/66/65 17/1/1
f 67/64/63 17/1/1 53/11/11
f 38/50/49 67/64/63 53/11/11
f 38/50/49 53/11/11 18/10/10
f 3/65/64 23/67/66 68/68/67
f 3/65/64 68/68/67 43/66/65
f 23/67/66 2/51/50 45/54/53
f 23/67/66 45/54/53 68/68/67
f 68/68/67 45/54/53 19/5/5
f 68/68/67 19/5/5 54/2/2
f 43/66/65 68/68/67 54/2/2
f 43/66/65 54/2/2 17/1/1
f 4/45/44 26/61/60 6/59/58 25/57/56 5/55/54 28/52/51 2/51/50 23/67/66 3/65/64 24/63/62 1/49/48 27/46/45
