# Blender 4.4.0
# www.blender.org
mtllib brazo2ZIM.mtl
o BRAZO_1
v -0.022426 0.016606 -0.001381
v 0.014638 0.016961 -0.004871
v -0.001104 0.027617 0.003984
v -0.021331 -0.015429 0.009414
v 0.022046 -0.014358 -0.001029
v 0.005090 -0.025608 0.020225
v 0.007793 -0.006967 0.094732
v 0.006240 0.007204 0.094087
v 0.006240 0.007204 0.094087
v 0.011925 0.005961 0.090975
v -0.002045 0.005515 0.092068
v -0.002045 0.005515 0.092068
v 0.014399 -0.005144 0.091090
v -0.001647 -0.005593 0.092781
v -0.001647 -0.005593 0.092781
v 0.003407 0.023200 0.065492
v -0.014686 0.013572 0.064416
v 0.016735 0.014393 0.061817
v -0.013796 -0.013586 0.068144
v 0.008498 -0.022453 0.070938
v 0.023008 -0.012603 0.062881
v 0.007762 0.025440 0.000510
v -0.012603 0.025343 0.001474
v 0.016530 -0.023065 0.011015
v -0.009359 -0.023789 0.018062
v -0.025835 0.000520 0.001646
v 0.020418 0.001340 -0.006365
v 0.007070 0.000093 0.097365
v 0.009360 0.006904 0.093321
v 0.009360 0.006904 0.093321
v 0.002129 0.006661 0.093841
v 0.002129 0.006661 0.093841
v 0.011676 -0.006382 0.093668
v 0.011676 -0.006382 0.093668
v 0.002943 -0.006622 0.094582
v 0.002943 -0.006622 0.094582
v -0.001633 -0.000043 0.093740
v 0.012927 0.000395 0.092416
v 0.005054 0.015812 0.084086
v -0.019416 0.015778 0.034471
v 0.014337 0.010011 0.081922
v -0.007001 -0.009482 0.085312
v 0.007191 -0.025339 0.047770
v 0.023732 -0.014219 0.033621
v 0.001284 0.026653 0.037420
v -0.007616 0.009347 0.083672
v 0.016548 0.016460 0.031318
v -0.018379 -0.015307 0.041421
v 0.008498 -0.015410 0.086364
v 0.018672 -0.008782 0.082276
v -0.017584 -0.000057 0.065600
v 0.021646 0.000980 0.061079
v 0.018255 -0.020216 0.067294
v -0.003716 -0.020805 0.070720
v -0.006347 0.021086 0.065045
v 0.010913 0.021534 0.063950
v 0.010273 0.014750 0.083193
v -0.001744 0.014374 0.084007
v 0.003674 0.000019 0.097057
v 0.009688 0.000207 0.096558
v 0.000033 -0.014309 0.086437
v 0.015279 -0.013903 0.084515
v 0.017649 0.000678 0.081668
v -0.009480 -0.000099 0.084393
v -0.022729 0.000174 0.036510
v 0.022164 0.001192 0.030212
v 0.018329 -0.022818 0.041540
v -0.006806 -0.023505 0.046722
v -0.009877 0.024325 0.036077
v 0.009880 0.024656 0.034961
vn -0.0648 0.8622 0.5025
vn 0.0586 0.6091 0.7909
vn 0.3883 0.3519 0.8517
vn 0.6936 0.6265 0.3555
vn 0.1725 0.2570 0.9509
vn 0.0873 0.0806 0.9929
vn -0.0014 -0.0991 0.9951
vn 0.7140 -0.0837 0.6951
vn 0.9996 -0.0178 -0.0233
vn -0.9610 0.2688 0.0646
vn -0.8339 0.0762 0.5467
vn -0.4400 0.4160 0.7958
vn -0.6298 0.6944 0.3481
vn -0.4686 -0.1383 0.8725
vn -0.1599 0.0641 0.9851
vn 0.1726 0.2570 0.9509
vn 0.1725 0.2571 0.9509
vn -0.1599 0.0642 0.9850
vn -0.1840 -0.1662 0.9688
vn 0.2617 0.0196 0.9649
vn -0.4686 -0.1382 0.8726
vn -0.5860 -0.3131 0.7474
vn -0.6682 -0.4692 0.5773
vn -0.1990 -0.4101 0.8901
vn 0.3342 -0.2192 0.9167
vn 0.2545 -0.2545 0.9330
vn 0.2230 -0.5392 0.8121
vn 0.3925 -0.5721 0.7202
vn 0.3855 -0.8297 0.4036
vn 0.3798 -0.7318 0.5658
vn 0.3757 -0.5004 0.7801
vn -0.2805 -0.6837 0.6737
vn -0.3303 -0.8953 0.2990
vn 0.3342 -0.2192 0.9166
vn -0.1990 -0.4101 0.8900
vn -0.6682 -0.4693 0.5773
vn -0.8139 -0.5330 0.2315
vn -0.8415 -0.5196 -0.1479
vn 0.5411 -0.5690 -0.6192
vn 0.5478 -0.8269 -0.1274
vn 0.5236 -0.7498 0.4044
vn 0.5775 -0.8157 -0.0334
vn 0.3926 -0.5721 0.7201
vn 0.7507 -0.5912 0.2950
vn 0.8707 -0.3317 -0.3631
vn -0.8766 -0.2559 0.4075
vn -0.9894 -0.1376 -0.0457
vn -0.6683 -0.4692 0.5773
vn -0.1138 -0.7102 -0.6947
vn -0.9612 -0.2537 0.1084
vn -0.9707 0.0958 0.2206
vn -0.4851 0.1925 -0.8530
vn -0.8552 0.4220 0.3009
vn -0.3230 0.4166 -0.8498
vn -0.1708 0.0701 -0.9828
vn 0.9544 0.1042 0.2798
vn 0.9895 0.0340 0.1408
vn 0.7181 -0.6528 -0.2412
vn 0.9944 -0.0735 -0.0755
vn 0.5523 -0.8061 0.2122
vn 0.6172 -0.7582 0.2102
vn -0.3353 -0.6994 -0.6312
vn 0.1246 -0.9373 0.3254
vn 0.0743 -0.8062 -0.5870
vn -0.5536 -0.7825 0.2851
vn -0.3778 -0.4433 -0.8129
vn -0.4400 0.8331 0.3352
vn -0.4432 0.1411 -0.8852
vn 0.1329 0.9583 0.2530
vn -0.3528 0.6035 -0.7151
vn 0.6753 0.6593 0.3307
vn 0.7415 0.2458 -0.6244
vt 0.089610 0.143651
vt 0.088478 0.142918
vt 0.077889 0.133540
vt 0.078965 0.135542
vt 0.087346 0.142186
vt 0.075980 0.123758
vt 0.068198 0.115427
vt 0.067849 0.119522
vt 0.068016 0.120548
vt 0.140677 0.123235
vt 0.142330 0.125449
vt 0.118739 0.139254
vt 0.118779 0.138682
vt 0.151758 0.139776
vt 0.119552 0.140981
vt 0.087346 0.142186
vt 0.119552 0.140981
vt 0.120034 0.098371
vt 0.090527 0.100273
vt 0.151758 0.139776
vt 0.155119 0.093985
vt 0.158479 0.048193
vt 0.119977 0.065959
vt 0.088631 0.070787
vt 0.075980 0.123758
vt 0.072150 0.099038
vt 0.062870 0.097885
vt 0.068361 0.074634
vt 0.060396 0.080391
vt 0.088027 0.052082
vt 0.087768 0.057118
vt 0.119589 0.053089
vt 0.119195 0.049617
vt 0.119977 0.065959
vt 0.157164 0.048249
vt 0.155849 0.048305
vt 0.056179 0.071374
vt 0.057198 0.074893
vt 0.066404 0.062632
vt 0.066205 0.057666
vt 0.068361 0.074634
vt 0.059317 0.096976
vt 0.058530 0.095763
vt 0.153026 0.091903
vt 0.151334 0.090853
vt 0.158479 0.048193
vt 0.148852 0.048604
vt 0.152350 0.048455
vt 0.149200 0.090001
vt 0.147321 0.089859
vt 0.140081 0.122723
vt 0.145789 0.131114
vt 0.068475 0.132140
vt 0.068373 0.121788
vt 0.057834 0.093986
vt 0.056087 0.091866
vt 0.054651 0.066416
vt 0.043700 0.051592
vt 0.066106 0.052013
vt 0.064829 0.044056
vt 0.088366 0.046667
vt 0.085959 0.036520
vt 0.118485 0.046561
vt 0.117406 0.042562
vt 0.119391 0.138589
vt 0.120709 0.139332
vt 0.092619 0.145600
vt 0.095629 0.147549
vt 0.080404 0.137123
vt 0.082052 0.139844
s 1
usemtl Body
f 16/1/1 39/2/2 57/3/3
f 16/1/1 57/3/3 56/4/4
f 39/2/2 8/5/5 29/6/6
f 39/2/2 29/6/6 57/3/3
f 57/3/3 29/6/6 10/7/7
f 57/3/3 10/7/7 41/8/8
f 56/4/4 57/3/3 41/8/8
f 56/4/4 41/8/8 18/9/9
f 17/10/10 46/11/11 58/12/12
f 17/10/10 58/12/12 55/13/13
f 46/11/11 11/14/14 32/15/15
f 46/11/11 32/15/15 58/12/12
f 58/12/12 32/15/15 9/16/16
f 58/12/12 9/16/16 39/2/2
f 55/13/13 58/12/12 39/2/2
f 55/13/13 39/2/2 16/1/1
f 8/5/17 31/17/18 59/18/19
f 8/5/17 59/18/19 28/19/20
f 31/17/18 12/20/21 37/21/22
f 31/17/18 37/21/22 59/18/19
f 59/18/19 37/21/22 14/22/23
f 59/18/19 14/22/23 36/23/24
f 28/19/20 59/18/19 36/23/24
f 28/19/20 36/23/24 7/24/25
f 10/7/7 30/25/6 60/26/26
f 10/7/7 60/26/26 38/27/27
f 30/25/6 8/5/17 28/19/20
f 30/25/6 28/19/20 60/26/26
f 60/26/26 28/19/20 7/24/25
f 60/26/26 7/24/25 33/28/28
f 38/27/27 60/26/26 33/28/28
f 38/27/27 33/28/28 13/29/29
f 20/30/30 49/31/31 61/32/32
f 20/30/30 61/32/32 54/33/33
f 49/31/31 7/24/34 35/34/35
f 49/31/31 35/34/35 61/32/32
f 61/32/32 35/34/35 14/22/36
f 61/32/32 14/22/36 42/35/37
f 54/33/33 61/32/32 42/35/37
f 54/33/33 42/35/37 19/36/38
f 21/37/39 50/38/40 62/39/41
f 21/37/39 62/39/41 53/40/42
f 50/38/40 13/29/29 34/41/43
f 50/38/40 34/41/43 62/39/41
f 62/39/41 34/41/43 7/24/34
f 62/39/41 7/24/34 49/31/31
f 53/40/42 62/39/41 49/31/31
f 53/40/42 49/31/31 20/30/30
f 18/9/9 41/8/8 63/42/44
f 18/9/9 63/42/44 52/43/45
f 41/8/8 10/7/7 38/27/27
f 41/8/8 38/27/27 63/42/44
f 63/42/44 38/27/27 13/29/29
f 63/42/44 13/29/29 50/38/40
f 52/43/45 63/42/44 50/38/40
f 52/43/45 50/38/40 21/37/39
f 19/36/38 42/35/37 64/44/46
f 19/36/38 64/44/46 51/45/47
f 42/35/37 15/46/48 37/21/22
f 42/35/37 37/21/22 64/44/46
f 64/44/46 37/21/22 11/14/14
f 64/44/46 11/14/14 46/11/11
f 51/45/47 64/44/46 46/11/11
f 51/45/47 46/11/11 17/10/10
f 4/47/49 48/48/50 65/49/51
f 4/47/49 65/49/51 26/50/52
f 48/48/50 19/36/38 51/45/47
f 48/48/50 51/45/47 65/49/51
f 65/49/51 51/45/47 17/10/10
f 65/49/51 17/10/10 40/51/53
f 26/50/52 65/49/51 40/51/53
f 26/50/52 40/51/53 1/52/54
f 2/53/55 47/54/56 66/55/57
f 2/53/55 66/55/57 27/56/58
f 47/54/56 18/9/9 52/43/45
f 47/54/56 52/43/45 66/55/57
f 66/55/57 52/43/45 21/37/39
f 66/55/57 21/37/39 44/57/59
f 27/56/58 66/55/57 44/57/59
f 27/56/58 44/57/59 5/58/60
f 5/58/60 44/57/59 67/59/61
f 5/58/60 67/59/61 24/60/62
f 44/57/59 21/37/39 53/40/42
f 44/57/59 53/40/42 67/59/61
f 67/59/61 53/40/42 20/30/30
f 67/59/61 20/30/30 43/61/63
f 24/60/62 67/59/61 43/61/63
f 24/60/62 43/61/63 6/62/64
f 6/62/64 43/61/63 68/63/65
f 6/62/64 68/63/65 25/64/66
f 43/61/63 20/30/30 54/33/33
f 43/61/63 54/33/33 68/63/65
f 68/63/65 54/33/33 19/36/38
f 68/63/65 19/36/38 48/48/50
f 25/64/66 68/63/65 48/48/50
f 25/64/66 48/48/50 4/47/49
f 1/52/54 40/51/53 69/65/67
f 1/52/54 69/65/67 23/66/68
f 40/51/53 17/10/10 55/13/13
f 40/51/53 55/13/13 69/65/67
f 69/65/67 55/13/13 16/1/1
f 69/65/67 16/1/1 45/67/69
f 23/66/68 69/65/67 45/67/69
f 23/66/68 45/67/69 3/68/70
f 3/68/70 45/67/69 70/69/71
f 3/68/70 70/69/71 22/70/72
f 45/67/69 16/1/1 56/4/4
f 45/67/69 56/4/4 70/69/71
f 70/69/71 56/4/4 18/9/9
f 70/69/71 18/9/9 47/54/56
f 22/70/72 70/69/71 47/54/56
f 22/70/72 47/54/56 2/53/55
f 4/47/49 26/50/52 1/52/54 23/66/68 3/68/70 22/70/72 2/53/55 27/56/58 5/58/60 24/60/62 6/62/64 25/64/66
