# 3ds Max Wavefront OBJ Exporter v0.99 - (c)2007 guruware
# File Created: 15.04.2025 19:11:22

mtllib corazon.mtl

#
# object MinosPrime_Heart_001_0
#

v  0.0053 0.0087 0.0313
v  0.0036 0.0041 0.0325
v  0.0058 0.0054 0.0385
v  -0.0027 -0.0031 0.0307
v  0.0029 -0.0021 0.0325
v  0.0002 -0.0042 0.0365
v  0.0004 0.0071 0.0285
v  -0.0057 -0.0033 0.0261
v  -0.0079 -0.0081 0.0261
v  0.0058 0.0128 0.0297
v  0.0072 0.0130 0.0343
v  0.0093 0.0111 0.0301
v  0.0096 0.0176 0.0249
v  0.0045 0.0194 0.0215
v  0.0098 0.0213 0.0157
v  0.0002 0.0059 0.0194
v  -0.0118 -0.0044 0.0280
v  -0.0167 -0.0060 0.0251
v  0.0042 0.0220 0.0164
v  0.0038 0.0132 0.0122
v  0.0082 0.0141 0.0118
v  -0.0122 0.0002 0.0200
v  -0.0168 -0.0019 0.0273
v  -0.0161 -0.0064 0.0185
v  -0.0162 0.0078 0.0113
v  -0.0115 0.0155 -0.0042
v  0.0060 0.0173 -0.0015
v  0.0137 0.0146 0.0037
v  -0.0046 0.0103 -0.0250
v  0.0234 0.0151 0.0138
v  0.0253 0.0145 0.0078
v  0.0232 0.0130 0.0152
v  -0.0259 -0.0034 -0.0004
v  -0.0213 -0.0050 -0.0214
v  -0.0052 -0.0054 -0.0385
v  -0.0024 -0.0146 -0.0365
v  -0.0165 -0.0188 -0.0042
v  -0.0093 -0.0186 0.0126
v  -0.0028 -0.0214 0.0063
v  -0.0007 -0.0165 0.0208
v  0.0065 -0.0081 0.0156
v  0.0087 0.0026 0.0293
v  -0.0008 -0.0220 -0.0131
v  0.0014 -0.0056 0.0313
v  0.0148 -0.0123 -0.0117
v  0.0072 0.0056 0.0321
v  0.0106 0.0123 0.0218
v  0.0161 0.0046 0.0146
v  0.0259 0.0114 0.0070
v  0.0177 0.0065 0.0042
v  0.0141 0.0043 -0.0166
v  0.0052 -0.0064 -0.0368
# 52 vertices

vn -0.3382 0.3575 0.8705
vn -0.3653 -0.0066 0.9309
vn 0.0655 -0.0896 0.9938
vn -0.6727 0.0492 0.7383
vn 0.4412 -0.1142 0.8901
vn -0.1056 -0.1197 0.9872
vn -0.7871 0.4293 0.4429
vn -0.5164 0.5535 0.6534
vn -0.3198 -0.5566 0.7668
vn -0.3842 0.7161 0.5827
vn 0.0861 0.4592 0.8842
vn 0.8316 0.1985 0.5187
vn 0.5801 0.6495 0.4916
vn -0.5256 0.7432 0.4139
vn 0.6024 0.7147 -0.3553
vn -0.7125 0.6146 0.3387
vn -0.0064 0.1148 0.9934
vn -0.7454 -0.5896 0.3112
vn -0.4755 0.8527 -0.2161
vn -0.5166 0.8554 -0.0379
vn 0.3440 0.9390 0.0012
vn -0.4755 0.7014 0.5310
vn -0.6088 0.4955 0.6195
vn -0.8975 -0.2820 0.3390
vn -0.6170 0.6422 0.4550
vn -0.4673 0.8826 -0.0519
vn 0.1847 0.9775 -0.1017
vn 0.4145 0.8732 -0.2563
vn -0.1205 0.8115 -0.5719
vn 0.4622 0.7486 0.4754
vn 0.6893 0.6395 -0.3405
vn 0.5141 0.0140 0.8576
vn -0.9957 0.0253 0.0890
vn -0.8871 -0.0135 -0.4615
vn -0.3151 0.1810 -0.9317
vn -0.0324 -0.7015 -0.7119
vn -0.6107 -0.7918 -0.0125
vn -0.4466 -0.8156 0.3680
vn 0.2876 -0.9462 0.1481
vn 0.2830 -0.8253 0.4887
vn 0.8091 -0.5195 0.2747
vn 0.8539 -0.3040 0.4225
vn 0.1760 -0.9779 -0.1130
vn 0.2987 -0.7558 0.5827
vn 0.8381 -0.5400 -0.0772
vn 0.7352 -0.2152 0.6428
vn 0.9991 -0.0323 -0.0268
vn 0.4385 -0.3190 0.8402
vn 0.8628 -0.2111 -0.4593
vn 0.9385 -0.1629 -0.3046
vn 0.8181 0.4033 -0.4099
vn 0.6137 0.0344 -0.7888
# 52 vertex normals

vt 0.0697 0.3679 0.0000
vt 0.0898 0.4047 0.0000
vt 0.0403 0.4278 0.0000
vt 0.1606 0.4451 0.0000
vt 0.1113 0.4526 0.0000
vt 0.1321 0.4921 0.0000
vt 0.1181 0.3656 0.0000
vt 0.2067 0.4284 0.0000
vt 0.2216 0.4786 0.0000
vt 0.0526 0.3328 0.0000
vt 0.0271 0.3658 0.0000
vt 0.0185 0.3293 0.0000
vt 0.0362 0.2640 0.0000
vt 0.0823 0.2503 0.0000
vt 0.0743 0.1825 0.0000
vt 0.1820 0.3178 0.0000
vt 0.2530 0.4542 0.0000
vt 0.3023 0.4733 0.0000
vt 0.1099 0.2261 0.0000
vt 0.1656 0.2076 0.0000
vt 0.1446 0.1711 0.0000
vt 0.2869 0.3871 0.0000
vt 0.3027 0.4444 0.0000
vt 0.3625 0.4394 0.0000
vt 0.2952 0.2995 0.0000
vt 0.3380 0.1471 0.0000
vt 0.2228 0.0790 0.0000
vt 0.1404 0.0880 0.0000
vt 0.4710 0.0057 0.0000
vt 0.0268 0.1187 0.0000
vt 0.0392 0.0673 0.0000
vt 0.0193 0.1385 0.0000
vt 0.4281 0.2858 0.0000
vt 0.5657 0.1431 0.0000
vt 0.6742 0.0517 0.0000
vt 0.7699 0.1285 0.0000
vt 0.5554 0.3177 0.0000
vt 0.4992 0.4484 0.0000
vt 0.4114 0.5499 0.0000
vt 0.3405 0.4998 0.0000
vt 0.5841 0.4402 0.0000
vt 0.5217 0.5350 0.0000
vt 0.6306 0.5911 0.0000
vt 0.5357 0.7166 0.0000
vt 0.6758 0.3162 0.0000
vt 0.4641 0.6417 0.0000
vt 0.4232 0.6270 0.0000
vt 0.4336 0.6795 0.0000
vt 0.4768 0.6770 0.0000
vt 0.4868 0.7295 0.0000
vt 0.7684 0.4046 0.0000
vt 0.5147 0.7514 0.0000
vt 0.4615 0.7731 0.0000
vt 0.5228 0.7839 0.0000
vt 0.5605 0.7833 0.0000
vt 0.5479 0.8227 0.0000
vt 0.6305 0.7665 0.0000
vt 0.6218 0.8182 0.0000
vt 0.7058 0.8181 0.0000
vt 0.7180 0.7482 0.0000
vt 0.7601 0.6467 0.0000
vt 0.8371 0.7040 0.0000
vt 0.8629 0.6550 0.0000
vt 0.8403 0.5763 0.0000
vt 0.8903 0.6638 0.0000
vt 0.8592 0.7067 0.0000
vt 0.9222 0.5712 0.0000
vt 0.8802 0.3908 0.0000
vt 0.9876 0.5088 0.0000
vt 0.9887 0.2660 0.0000
vt 0.8379 0.1921 0.0000
vt 0.8750 0.1240 0.0000
# 72 texture coords

o MinosPrime_Heart_001_0
g MinosPrime_Heart_001_0
usemtl MinosPrime_Heart_default
s 1
f 1/1/1 2/2/2 3/3/3 
f 4/4/4 2/2/2 1/1/1 
f 4/4/4 5/5/5 2/2/2 
f 6/6/6 5/5/5 4/4/4 
f 1/1/1 7/7/7 4/4/4 
f 7/7/7 8/8/8 4/4/4 
f 9/9/9 4/4/4 8/8/8 
f 1/1/1 10/10/10 7/7/7 
f 1/1/1 11/11/11 10/10/10 
f 12/12/12 10/10/10 11/11/11 
f 12/12/12 13/13/13 10/10/10 
f 14/14/14 10/10/10 13/13/13 
f 14/14/14 7/7/7 10/10/10 
f 13/13/13 15/15/15 14/14/14 
f 7/7/7 14/14/14 16/16/16 
f 7/7/7 16/16/16 8/8/8 
f 8/8/8 17/17/17 9/9/9 
f 17/17/17 18/18/18 9/9/9 
f 19/19/19 14/14/14 15/15/15 
f 14/14/14 19/19/19 16/16/16 
f 15/15/15 20/20/20 19/19/19 
f 16/16/16 19/19/19 20/20/20 
f 15/15/15 21/21/21 20/20/20 
f 16/16/16 22/22/22 8/8/8 
f 22/22/22 17/17/17 8/8/8 
f 23/23/23 18/18/18 17/17/17 
f 23/23/23 17/17/17 22/22/22 
f 18/18/18 23/23/23 24/24/24 
f 22/22/22 24/24/24 23/23/23 
f 25/25/25 22/22/22 16/16/16 
f 25/25/25 16/16/16 20/20/20 
f 24/24/24 22/22/22 25/25/25 
f 26/26/26 25/25/25 20/20/20 
f 27/27/27 20/20/20 21/21/21 
f 26/26/26 20/20/20 27/27/27 
f 27/27/27 21/21/21 28/28/28 
f 27/27/27 29/29/29 26/26/26 
f 28/28/28 21/21/21 30/30/30 
f 30/30/30 31/31/31 28/28/28 
f 30/30/30 21/21/21 32/32/32 
f 33/33/33 25/25/25 26/26/26 
f 24/24/24 25/25/25 33/33/33 
f 29/29/29 34/34/34 26/26/26 
f 34/34/34 33/33/33 26/26/26 
f 35/35/35 34/34/34 29/29/29 
f 36/36/36 34/34/34 35/35/35 
f 37/37/37 33/33/33 34/34/34 
f 24/24/24 33/33/33 37/37/37 
f 37/37/37 34/34/34 36/36/36 
f 37/37/37 38/38/38 24/24/24 
f 38/38/38 9/39/9 24/24/24 
f 9/39/9 18/40/18 24/24/24 
f 38/38/38 37/37/37 39/41/39 
f 38/38/38 40/42/40 9/39/9 
f 40/42/40 38/38/38 39/41/39 
f 41/43/41 40/42/40 39/41/39 
f 40/42/40 41/43/41 42/44/42 
f 37/37/37 43/45/43 39/41/39 
f 43/45/43 37/37/37 36/36/36 
f 41/43/41 39/41/39 43/45/43 
f 9/39/9 40/42/40 44/46/44 
f 42/44/42 44/46/44 40/42/40 
f 9/39/9 44/46/44 4/47/4 
f 6/48/6 4/47/4 44/46/44 
f 6/48/6 44/46/44 5/49/5 
f 5/49/5 44/46/44 42/44/42 
f 42/44/42 2/50/2 5/49/5 
f 45/51/45 43/45/43 36/36/36 
f 43/45/43 45/51/45 41/43/41 
f 2/50/2 42/44/42 46/52/46 
f 46/52/46 3/53/3 2/50/2 
f 46/52/46 1/54/1 3/53/3 
f 12/55/12 1/54/1 46/52/46 
f 12/55/12 46/52/46 42/44/42 
f 12/55/12 11/56/11 1/54/1 
f 12/55/12 42/44/42 47/57/47 
f 47/57/47 42/44/42 41/43/41 
f 13/58/13 12/55/12 47/57/47 
f 47/57/47 15/59/15 13/58/13 
f 47/57/47 21/60/21 15/59/15 
f 41/43/41 21/60/21 47/57/47 
f 21/60/21 41/43/41 48/61/48 
f 41/43/41 45/51/45 48/61/48 
f 48/61/48 32/62/32 21/60/21 
f 49/63/49 32/62/32 48/61/48 
f 48/61/48 50/64/50 49/63/49 
f 48/61/48 45/51/45 50/64/50 
f 31/65/31 32/62/32 49/63/49 
f 31/65/31 49/63/49 50/64/50 
f 30/66/30 32/62/32 31/65/31 
f 31/65/31 50/64/50 28/67/28 
f 28/67/28 50/64/50 51/68/51 
f 45/51/45 51/68/51 50/64/50 
f 27/69/27 28/67/28 51/68/51 
f 27/69/27 51/68/51 29/70/29 
f 52/71/52 51/68/51 45/51/45 
f 52/71/52 29/70/29 51/68/51 
f 52/71/52 45/51/45 36/36/36 
f 29/70/29 52/71/52 35/72/35 
f 35/72/35 52/71/52 36/36/36 
# 0 polygons - 100 triangles

