# Blender 4.4.0
# www.blender.org
mtllib Minos_Right_Thigh.mtl
o Minos_Right_Thigh
v 0.053981 -0.005585 -0.041924
v 0.007381 0.017715 -0.072024
v 0.012381 0.037415 0.068176
v 0.046181 -0.006785 0.042676
v 0.056881 -0.006985 0.005876
v -0.036919 0.017815 -0.051124
v -0.051319 0.028015 0.003476
v -0.032919 0.044015 0.060276
v 0.036981 -0.107385 -0.039124
v 0.047181 -0.111385 -0.001324
v 0.039281 -0.200985 0.003776
v 0.031881 -0.218485 -0.039024
v 0.033381 -0.246885 -0.007624
v -0.000319 -0.107185 -0.050024
v -0.008119 -0.215685 -0.055624
v -0.006219 -0.253285 0.025876
v 0.020181 -0.248585 0.015176
v -0.003719 -0.210585 0.037876
v 0.028381 -0.201685 0.031276
v 0.003181 -0.107085 0.055176
v 0.036081 -0.107285 0.033876
v -0.034319 -0.107285 -0.037224
v -0.051819 -0.106985 0.000576
v -0.031419 -0.216385 -0.037524
v -0.035319 -0.106785 0.038676
v -0.025219 -0.206285 0.023776
v -0.039219 -0.204285 -0.005124
v -0.025219 -0.249585 0.011476
v -0.035419 -0.243185 -0.014824
vn 0.8117 0.4510 -0.3710
vn 0.8573 0.5070 0.0891
vn 0.7281 -0.1057 -0.6773
vn 0.9955 -0.0940 0.0125
vn 0.9825 -0.1253 0.1378
vn 0.6405 -0.4167 -0.6451
vn 0.6595 -0.7224 -0.2077
vn 0.1444 0.6369 -0.7573
vn -0.0358 -0.0627 -0.9974
vn -0.0955 -0.4104 -0.9069
vn -0.0875 -0.8041 0.5881
vn 0.5363 -0.7895 0.2983
vn -0.1499 -0.2295 0.9617
vn 0.6598 -0.2224 0.7178
vn 0.0568 -0.1203 0.9911
vn 0.7912 -0.1049 0.6025
vn 0.8042 0.3977 0.4417
vn 0.4288 0.6968 0.5750
vn -0.5075 0.6443 -0.5721
vn -0.7041 -0.0536 -0.7081
vn -0.9968 -0.0796 0.0065
vn -0.6797 0.7276 -0.0926
vn -0.6846 -0.4106 -0.6023
vn -0.7058 -0.1081 0.7001
vn -0.3689 0.7909 0.4883
vn -0.7415 -0.1507 0.6538
vn -0.9899 -0.0980 0.1021
vn -0.5803 -0.7690 0.2680
vn -0.6619 -0.7100 -0.2405
vt 2.658200 0.413800
vt 2.699200 0.431400
vt 2.630900 0.520500
vt 2.666000 0.533700
vt 2.660200 0.626000
vt 2.615200 0.643600
vt 2.648400 0.673800
vt 2.611300 0.379400
vt 2.591800 0.514200
vt 2.570300 0.637700
vt 2.455100 0.658700
vt 2.425800 0.656700
vt 2.451200 0.613800
vt 2.398400 0.661100
vt 2.394500 0.613300
vt 2.419900 0.606400
vt 2.380900 0.526400
vt 2.447300 0.506800
vt 2.412100 0.513200
vt 2.359400 0.419400
vt 2.394500 0.408400
vt 2.425800 0.356900
vt 2.568400 0.375700
vt 2.556600 0.509800
vt 2.519500 0.506800
vt 2.515600 0.368700
vt 2.539100 0.632300
vt 2.486300 0.504400
vt 2.462900 0.348100
vt 2.474600 0.610400
vt 2.507800 0.612300
vt 2.480500 0.657200
vt 2.509800 0.655800
s 1
usemtl MinosPrime_Body_default.001
f 1/1/1 5/2/2 9/3/3
f 10/4/4 9/3/3 5/2/2
f 10/4/4 11/5/5 9/3/3
f 12/6/6 9/3/3 11/5/5
f 13/7/7 12/6/6 11/5/5
f 9/3/3 2/8/8 1/1/1
f 9/3/3 14/9/9 2/8/8
f 12/6/6 14/9/9 9/3/3
f 12/6/6 15/10/10 14/9/9
f 16/11/11 17/12/12 18/13/13
f 13/14/7 11/15/5 17/12/12
f 19/16/14 18/13/13 17/12/12
f 19/16/14 17/12/12 11/15/5
f 11/15/5 10/17/4 19/16/14
f 18/13/13 19/16/14 20/18/15
f 21/19/16 19/16/14 10/17/4
f 21/19/16 20/18/15 19/16/14
f 10/17/4 5/20/2 21/19/16
f 4/21/17 21/19/16 5/20/2
f 21/19/16 4/21/17 20/18/15
f 4/21/17 3/22/18 20/18/15
f 2/8/8 14/9/9 6/23/19
f 22/24/20 6/23/19 14/9/9
f 14/9/9 15/10/10 22/24/20
f 22/24/20 23/25/21 6/23/19
f 7/26/22 6/23/19 23/25/21
f 24/27/23 22/24/20 15/10/10
f 23/25/21 25/28/24 7/26/22
f 25/28/24 8/29/25 7/26/22
f 25/28/24 3/22/18 8/29/25
f 25/28/24 20/18/15 3/22/18
f 25/28/24 26/30/26 20/18/15
f 25/28/24 23/25/21 26/30/26
f 18/13/13 20/18/15 26/30/26
f 18/13/13 26/30/26 16/11/11
f 23/25/21 22/24/20 27/31/27
f 27/31/27 26/30/26 23/25/21
f 24/27/23 27/31/27 22/24/20
f 28/32/28 16/11/11 26/30/26
f 26/30/26 27/31/27 28/32/28
f 29/33/29 27/31/27 24/27/23
f 29/33/29 28/32/28 27/31/27
f 3/22/18 4/21/17 7/26/22 8/29/25
f 4/21/17 5/20/2 6/23/19 7/26/22
f 5/2/2 1/1/1 2/8/8 6/23/19
f 15/10/10 12/6/6 13/7/7 24/27/23
f 24/27/23 13/14/7 17/12/12 29/33/29
f 29/33/29 17/12/12 16/11/11 28/32/28
