# Blender 4.4.0
# www.blender.org
mtllib Minos_Upper_Left_Arm.mtl
o Minos_Upper_Left_Arm
v 0.022967 0.044399 0.011764
v 0.014967 0.043399 -0.025836
v -0.015433 -0.036401 -0.037636
v 0.008067 -0.057501 -0.051336
v -0.003833 -0.085901 -0.028936
v -0.013833 -0.050001 -0.001536
v -0.013133 -0.025501 0.051064
v 0.013567 0.008299 0.034864
v 0.003167 0.013198 -0.055536
v 0.043967 -0.031801 -0.040036
v 0.052967 -0.023101 0.002664
v 0.026767 -0.051401 0.041764
v 0.069667 -0.079601 0.002164
v -0.004033 -0.080701 0.029064
v 0.065767 -0.087901 -0.021436
v 0.095267 -0.121101 0.004264
v 0.051867 -0.095501 0.024264
v 0.021567 -0.121701 0.019864
v 0.019267 -0.124501 -0.022536
v 0.085567 -0.135401 0.027064
v 0.031567 -0.168901 0.003564
v 0.036667 -0.165801 -0.020336
v 0.050067 -0.154801 0.020964
v 0.072767 -0.136901 -0.024536
v 0.042067 -0.111501 -0.032936
v 0.103967 -0.170101 0.011364
v 0.092867 -0.160201 0.015764
v 0.079367 -0.173901 -0.022836
v 0.065367 -0.162701 -0.016936
v 0.093967 -0.137101 0.004064
v 0.121267 -0.170001 0.018064
v 0.064067 -0.151001 -0.021736
v 0.024667 -0.160701 -0.002436
v 0.086567 -0.159601 -0.041236
v 0.027467 -0.146301 -0.007236
v 0.021467 -0.135001 0.027464
v 0.061467 -0.145701 -0.036436
v 0.044867 -0.178801 -0.026036
v 0.035867 -0.167501 -0.045436
v 0.009667 -0.167301 -0.012536
v 0.013667 -0.147801 -0.020436
v 0.019667 -0.124801 0.022364
v 0.036867 -0.089301 0.032564
v 0.027567 -0.125401 0.013564
v 0.036467 -0.120301 0.028364
vn -0.7599 -0.1883 -0.6222
vn -0.1677 -0.2115 -0.9629
vn -0.8130 -0.4289 -0.3937
vn 0.4342 0.2338 -0.8699
vn 0.7121 0.1628 -0.6829
vn 0.8446 0.3941 -0.3623
vn 0.9198 0.3721 0.1248
vn 0.9218 0.3324 0.1993
vn 0.6326 0.2236 0.7415
vn 0.3917 -0.0578 0.9183
vn -0.1371 -0.0983 0.9857
vn 0.8960 0.3697 0.2458
vn -0.6644 -0.4484 0.5980
vn -0.9689 -0.2455 0.0295
vn 0.7233 0.1960 -0.6621
vn 0.8634 0.4924 0.1099
vn 0.3327 0.0668 0.9407
vn -0.6117 -0.3529 0.7080
vn -0.7337 -0.4221 -0.5325
vn 0.2731 0.2836 0.9192
vn -0.8841 -0.3903 0.2568
vn -0.6402 -0.3738 -0.6712
vn -0.2926 -0.2203 0.9305
vn 0.4022 -0.0195 -0.9153
vn 0.1077 -0.1576 -0.9816
vn -0.3429 -0.9154 -0.2110
vn -0.9294 -0.3636 0.0639
vn -0.3063 -0.7401 0.5987
vn -0.2949 -0.1615 0.9418
vn -0.7283 0.3079 0.6121
vn -0.0525 -0.9879 0.1457
vn -0.1956 0.3331 0.9224
vn 0.2950 -0.5544 0.7782
vn 0.7697 -0.0378 0.6372
vn -0.2616 -0.5029 0.8238
vn -0.0123 -0.4785 0.8780
vn 0.1049 -0.1509 -0.9830
vn -0.3245 -0.2680 -0.9071
vn -0.0765 0.5532 -0.8295
vn -0.1090 -0.9413 -0.3195
vn -0.7986 -0.5947 0.0926
vn -0.6842 0.5621 -0.4646
vn 0.2947 0.8643 -0.4077
vn -0.9110 0.4027 0.0890
vn -0.7269 0.3120 0.6118
vn -0.4102 0.7407 -0.5320
vn 0.2687 -0.3308 0.9046
vn -0.8144 0.5301 -0.2361
vn -0.9595 0.2529 0.1241
vn -0.9283 0.3324 0.1664
vn -0.9156 0.3570 0.1853
vn -0.9130 0.3879 0.1261
vt 0.904300 0.177000
vt 0.873500 0.191000
vt 0.850100 0.167600
vt 0.943800 0.208400
vt 0.883300 0.225100
vt 0.971700 0.237900
vt 0.974600 0.274700
vt 0.892100 0.265100
vt 0.942900 0.296400
vt 0.879400 0.313700
vt 0.925300 0.338900
vt 0.830600 0.268300
vt 0.867200 0.352800
vt 0.894500 0.387900
vt 0.825200 0.241100
vt 0.777300 0.268300
vt 0.825200 0.305400
vt 0.853000 0.410200
vt 0.887700 0.417200
vt 0.815400 0.351100
vt 0.808100 0.396200
vt 0.767600 0.296100
vt 0.764200 0.368400
vt 0.763700 0.392800
vt 0.768600 0.339600
vt 0.774400 0.226300
vt 0.812000 0.205800
vt 0.805700 0.177400
vt 0.760300 0.180400
vt 0.627000 0.023300
vt 0.614300 0.039900
vt 0.566400 0.015900
vt 0.546900 0.034200
vt 0.582500 0.056100
vt 0.612300 0.128800
vt 0.546400 0.124500
vt 0.619600 0.114400
vt 0.528800 0.050800
vt 0.476800 0.039200
vt 0.470000 0.057000
vt 0.418900 0.050600
vt 0.513200 0.136600
vt 0.504400 0.109900
vt 0.544400 0.097400
vt 0.501500 0.087800
vt 0.523400 0.065700
vt 0.459000 0.117700
vt 0.466600 0.101000
vt 0.405800 0.101800
vt 0.468000 0.074300
vt 0.406000 0.088500
vt 0.375200 0.072600
vt 0.416000 0.078200
vt 0.407700 0.067600
vt 0.000000 0.000000
s 1
usemtl MinosPrime_Body_default.001
f 3/1/1 4/2/2 5/3/3
f 9/4/4 4/2/2 3/1/1
f 10/5/5 4/2/2 9/4/4
f 9/4/4 2/6/6 10/5/5
f 2/6/6 1/7/7 10/5/5
f 1/7/7 11/8/8 10/5/5
f 11/8/8 1/7/7 8/9/9
f 8/9/9 12/10/10 11/8/8
f 12/10/10 8/9/9 7/11/11
f 10/5/5 11/8/8 13/12/12
f 13/12/12 11/8/8 12/10/10
f 7/11/11 14/13/13 12/10/10
f 7/11/11 6/14/14 14/13/13
f 4/2/2 10/5/5 15/15/15
f 13/12/12 15/15/15 10/5/5
f 15/15/15 13/12/12 16/16/16
f 12/10/10 17/17/17 13/12/12
f 17/17/17 12/10/10 14/13/13
f 16/16/16 13/12/12 17/17/17
f 5/18/3 14/13/13 6/14/14
f 6/14/14 3/19/1 5/18/3
f 5/18/3 18/20/18 14/13/13
f 14/13/13 18/20/18 17/17/17
f 19/21/19 18/20/18 5/18/3
f 17/17/17 20/22/20 16/16/16
f 20/22/20 17/17/17 18/20/18
f 18/20/18 19/21/19 21/23/21
f 22/24/22 21/23/21 19/21/19
f 21/23/21 23/25/23 18/20/18
f 18/20/18 23/25/23 20/22/20
f 16/16/16 24/26/24 15/15/15
f 25/27/25 15/15/15 24/26/24
f 15/15/15 25/27/25 4/2/2
f 25/27/25 19/28/19 4/2/2
f 5/3/3 4/2/2 19/28/19
f 22/29/22 19/28/19 25/27/25
f 25/27/25 24/26/24 22/29/22
f 26/30/26 27/31/27 28/32/28
f 27/31/27 29/33/29 28/32/28
f 27/31/27 30/34/30 29/33/29
f 26/35/26 28/36/28 31/37/31
f 30/34/30 32/38/32 29/33/29
f 29/33/29 32/38/32 33/39/33
f 32/38/32 35/40/34 33/39/33
f 33/39/33 35/40/34 36/41/35
f 28/36/28 29/42/29 38/43/36
f 34/44/37 39/45/38 37/46/39
f 34/44/37 38/43/40 39/45/38
f 38/43/40 33/47/33 40/48/41
f 38/43/40 40/48/41 39/45/38
f 40/48/41 33/47/33 36/49/35
f 37/46/39 39/45/38 41/50/42
f 39/45/38 40/48/41 41/50/42
f 37/46/39 41/50/42 35/40/43
f 40/48/41 36/49/35 42/51/44
f 41/50/42 40/48/41 42/51/44
f 36/49/35 43/52/45 42/51/44
f 41/50/42 42/51/44 44/53/46
f 41/50/42 44/53/46 35/40/43
f 42/51/44 43/52/45 44/53/46
f 35/40/34 45/54/47 36/41/35
f 45/54/47 43/52/45 36/41/35
s 0
f 7/55/48 8/55/48 6/55/48
f 2/55/49 9/55/49 8/55/49
f 8/55/50 3/55/50 6/55/50
f 1/55/51 2/55/51 8/55/51
f 8/55/52 9/55/52 3/55/52
