# Blender 4.4.0
# www.blender.org
mtllib Minos_Left_Leg.mtl
o Minos_Left_Leg
v 0.004108 0.014302 -0.030600
v 0.027408 0.013602 -0.012500
v 0.015208 -0.082098 -0.051200
v 0.002208 -0.023298 0.050900
v 0.021208 -0.019598 0.036500
v 0.007008 -0.133898 0.026000
v 0.030108 -0.119698 -0.025500
v 0.008608 -0.280398 -0.046000
v 0.015308 -0.284498 -0.008600
v 0.031408 -0.013198 0.010200
v 0.024808 -0.134098 0.010700
v 0.001308 -0.280098 0.011600
v -0.035892 0.011502 -0.014000
v -0.027192 -0.078798 -0.043900
v -0.014692 -0.277698 -0.040500
v -0.012392 -0.279798 0.007800
v -0.022092 -0.132598 0.015100
v -0.030492 -0.182698 -0.008400
v -0.023192 -0.276098 -0.013500
v -0.039092 -0.117998 -0.018600
v -0.032492 -0.060698 -0.006900
v -0.024192 -0.018598 0.040200
v -0.037392 -0.016898 0.017400
v 0.007208 -0.341298 0.114100
v 0.004408 -0.324498 0.110100
v -0.023492 -0.341298 0.114700
v -0.022392 -0.324898 0.109700
v 0.003608 -0.301398 0.033800
v -0.022692 -0.341298 0.040600
v -0.015392 -0.301998 0.022600
v -0.021292 -0.341298 -0.015700
v -0.014392 -0.341298 -0.052700
v 0.012708 -0.341298 -0.052200
v 0.017108 -0.308698 -0.004000
v 0.022508 -0.341298 -0.019900
v 0.025808 -0.324398 0.021100
v 0.033108 -0.341298 0.052400
v 0.022208 -0.324698 0.093600
v 0.031708 -0.341298 0.091900
vn 0.6254 0.7802 -0.0131
vn 0.4327 0.0775 -0.8982
vn 0.1021 0.8317 -0.5458
vn 0.1096 0.3926 0.9132
vn 0.1852 -0.1572 0.9700
vn 0.6311 0.5132 0.5817
vn 0.9766 -0.0316 -0.2127
vn 0.5572 0.0439 -0.8292
vn 0.9827 0.0020 0.1849
vn 0.8212 0.4731 0.3189
vn 0.8865 -0.0885 0.4543
vn 0.4150 0.2462 0.8759
vn -0.6531 0.0913 -0.7517
vn -0.6674 0.7311 -0.1414
vn -0.6977 0.0211 -0.7161
vn -0.6242 0.2492 0.7405
vn -0.6969 -0.0987 0.7103
vn -0.9699 -0.1077 0.2185
vn -0.9991 -0.0180 0.0378
vn -0.9995 -0.0187 -0.0262
vn -0.9968 -0.0439 0.0671
vn -0.4849 0.4171 0.7687
vn -0.8156 0.3265 0.4776
vn 0.3276 -0.5292 0.7827
vn 0.2599 0.6497 0.7144
vn -0.5835 -0.4799 0.6551
vn -0.6098 0.5815 0.5384
vn 0.3484 0.8812 0.3195
vn -0.7630 -0.6460 -0.0229
vn -0.8135 0.4731 0.3383
vn -0.7365 -0.6743 -0.0537
vn -0.5152 -0.5466 -0.6602
vn 0.5335 -0.5368 -0.6536
vn 0.9619 0.2734 0.0060
vn 0.7833 -0.5890 -0.1989
vn 0.9079 0.4176 -0.0374
vn 0.8572 -0.5148 0.0126
vn 0.6526 0.6525 0.3852
vn 0.8326 -0.4488 0.3245
vt 0.539600 0.632300
vt 0.566900 0.738300
vt 0.569800 0.637700
vt 0.454600 0.658700
vt 0.473400 0.774900
vt 0.479500 0.657200
vt 0.533700 0.767600
vt 0.542500 0.928700
vt 0.503400 0.929200
vt 0.510300 0.655800
vt 0.497100 0.776900
vt 0.478500 0.923800
vt 0.606400 0.738300
vt 0.615200 0.643600
vt 0.567400 0.929700
vt 0.464400 0.924800
vt 0.441700 0.776900
vt 0.425500 0.832000
vt 0.440200 0.925300
vt 0.400900 0.770000
vt 0.401600 0.710900
vt 0.424800 0.656700
vt 0.397900 0.661100
vt 0.595700 0.934100
vt 0.622100 0.843800
vt 0.627400 0.777300
vt 0.640600 0.720700
vt 0.648900 0.673800
vt 0.107800 0.461400
vt 0.112100 0.447800
vt 0.136100 0.458700
vt 0.129500 0.445100
vt 0.108600 0.377900
vt 0.162200 0.403100
vt 0.130900 0.367900
vt 0.110000 0.346200
vt 0.187100 0.355700
vt 0.121900 0.341600
vt 0.134800 0.322800
vt 0.071200 0.255400
vt 0.073900 0.280300
vt 0.014900 0.267300
vt 0.020400 0.300000
vt 0.078100 0.301000
vt 0.028400 0.322500
vt 0.075900 0.348900
vt 0.092500 0.332000
vt 0.041100 0.349600
vt 0.071700 0.379400
vt 0.067600 0.414300
vt 0.097200 0.439200
vt 0.083100 0.446500
vt 0.046500 0.047100
vt 0.020500 0.041600
vt 0.021300 0.022600
vt 0.044300 0.016100
vt 0.095300 0.009900
vt 0.086200 0.049000
vt 0.138400 0.050700
vt 0.138400 0.029100
vt 0.123200 0.011400
s 1
usemtl MinosPrime_Body_default.001
f 2/1/1 3/2/2 1/3/3
f 4/4/4 6/5/5 5/6/6
f 7/7/7 3/2/2 2/1/1
f 8/8/8 3/2/2 7/7/7
f 9/9/9 8/8/8 7/7/7
f 10/10/10 7/7/7 2/1/1
f 10/10/10 5/6/6 7/7/7
f 11/11/11 5/6/6 6/5/5
f 11/11/11 7/7/7 5/6/6
f 11/11/11 9/9/9 7/7/7
f 6/5/5 12/12/12 11/11/11
f 9/9/9 11/11/11 12/12/12
f 1/3/3 14/13/13 13/14/14
f 3/2/2 14/13/13 1/3/3
f 14/13/13 3/2/2 15/15/15
f 8/8/8 15/15/15 3/2/2
f 12/12/12 6/5/5 16/16/16
f 17/17/17 16/16/16 6/5/5
f 6/5/5 4/4/4 17/17/17
f 17/17/17 18/18/18 16/16/16
f 19/19/19 16/16/16 18/18/18
f 18/18/18 17/17/17 20/20/20
f 20/20/20 17/17/17 21/21/21
f 22/22/22 17/17/17 4/4/4
f 21/21/21 17/17/17 22/22/22
f 23/23/23 21/21/21 22/22/22
f 15/15/15 19/24/19 18/25/18
f 18/25/18 20/26/20 15/15/15
f 20/26/20 14/13/13 15/15/15
f 14/13/13 20/26/20 21/27/21
f 14/13/13 21/27/21 13/14/14
f 13/14/14 21/27/21 23/28/23
f 24/29/24 25/30/25 26/31/26
f 27/32/27 26/31/26 25/30/25
f 25/30/25 28/33/28 27/32/27
f 26/31/26 27/32/27 29/34/29
f 30/35/30 27/32/27 28/33/28
f 30/35/30 29/34/29 27/32/27
f 28/33/28 12/36/12 30/35/30
f 29/34/29 30/35/30 31/37/31
f 16/38/16 30/35/30 12/36/12
f 31/37/31 30/35/30 19/39/19
f 19/39/19 30/35/30 16/38/16
f 19/40/19 15/41/15 31/42/31
f 32/43/32 31/42/31 15/41/15
f 15/41/15 8/44/8 32/43/32
f 33/45/33 32/43/32 8/44/8
f 34/46/34 33/45/33 8/44/8
f 9/47/9 34/46/34 8/44/8
f 9/47/9 12/36/12 34/46/34
f 35/48/35 33/45/33 34/46/34
f 28/33/28 34/46/34 12/36/12
f 36/49/36 35/48/35 34/46/34
f 36/49/36 34/46/34 28/33/28
f 37/50/37 35/48/35 36/49/36
f 36/49/36 28/33/28 38/51/38
f 36/49/36 38/51/38 37/50/37
f 25/30/25 38/51/38 28/33/28
f 38/51/38 39/52/39 37/50/37
f 25/30/25 24/29/24 38/51/38
f 39/52/39 38/51/38 24/29/24
f 31/53/31 32/54/32 33/55/33
f 35/56/35 31/53/31 33/55/33
f 31/53/31 35/56/35 37/57/37
f 29/58/29 31/53/31 37/57/37
f 26/59/26 29/58/29 37/57/37
f 24/60/24 26/59/26 37/57/37
f 39/61/39 24/60/24 37/57/37
f 5/6/6 10/10/10 22/22/22 4/4/4
f 10/10/10 2/1/1 23/23/23 22/22/22
f 2/1/1 1/3/3 13/14/14 23/28/23
