# Blender 4.4.0
# www.blender.org
mtllib Minos_Upper_Right_Arm.mtl
o Minos_Upper_Right_Arm
v -0.017266 0.044239 0.016472
v -0.009266 0.043239 -0.021128
v -0.002366 -0.057661 -0.046628
v 0.021134 -0.036561 -0.032928
v 0.009534 -0.086061 -0.024228
v 0.002534 0.013039 -0.050828
v -0.007866 0.008139 0.039572
v 0.018834 -0.025661 0.055772
v 0.019534 -0.050161 0.003172
v -0.038266 -0.031961 -0.035328
v -0.047266 -0.023261 0.007372
v -0.021066 -0.051561 0.046472
v -0.063966 -0.079761 0.006872
v 0.009734 -0.080861 0.033772
v -0.060066 -0.088061 -0.016728
v -0.089566 -0.121261 0.008972
v -0.046166 -0.095661 0.028972
v -0.015866 -0.121861 0.024572
v -0.013566 -0.124661 -0.017828
v -0.079866 -0.135561 0.031772
v -0.025866 -0.169061 0.008272
v -0.030966 -0.165961 -0.015628
v -0.044366 -0.154961 0.025672
v -0.067066 -0.137061 -0.019828
v -0.036366 -0.111661 -0.028228
v -0.098266 -0.170261 0.016072
v -0.087166 -0.160361 0.020472
v -0.073666 -0.174061 -0.018128
v -0.059666 -0.162861 -0.012228
v -0.088266 -0.137261 0.008772
v -0.115566 -0.170161 0.022772
v -0.058366 -0.151161 -0.017028
v -0.018966 -0.160861 0.002272
v -0.102666 -0.130461 0.003872
v -0.114766 -0.140061 -0.002128
v -0.080866 -0.159761 -0.036528
v -0.021766 -0.146461 -0.002528
v -0.015766 -0.135161 0.032172
v -0.055766 -0.145861 -0.031728
v -0.039166 -0.178961 -0.021328
v -0.030166 -0.167661 -0.040728
v -0.003966 -0.167461 -0.007828
v -0.007966 -0.147961 -0.015728
v -0.013966 -0.124961 0.027072
v -0.031166 -0.089461 0.037272
v -0.021866 -0.125561 0.018272
v -0.030766 -0.120461 0.033072
vn 0.1677 -0.2115 -0.9629
vn 0.7599 -0.1883 -0.6222
vn 0.8131 -0.4289 -0.3936
vn -0.4342 0.2338 -0.8699
vn -0.7119 0.1628 -0.6831
vn -0.8448 0.3939 -0.3623
vn -0.9198 0.3721 0.1248
vn -0.9217 0.3325 0.1998
vn -0.6326 0.2240 0.7414
vn -0.3917 -0.0578 0.9183
vn 0.1339 -0.0961 0.9863
vn -0.8962 0.3691 0.2462
vn 0.6647 -0.4484 0.5976
vn 0.9688 -0.2460 0.0288
vn -0.7233 0.1960 -0.6621
vn -0.8636 0.4921 0.1096
vn -0.3330 0.0669 0.9405
vn 0.6117 -0.3524 0.7083
vn 0.7337 -0.4221 -0.5325
vn -0.2731 0.2836 0.9192
vn 0.8842 -0.3901 0.2569
vn 0.6402 -0.3738 -0.6712
vn 0.2924 -0.2197 0.9307
vn -0.4022 -0.0195 -0.9153
vn -0.1077 -0.1576 -0.9816
vn 0.9295 -0.3633 0.0641
vn 0.1631 -0.8695 -0.4662
vn -0.0833 -0.9950 -0.0548
vn 0.2187 -0.2572 0.9413
vn 0.6145 0.7369 0.2816
vn -0.3235 -0.6852 -0.6526
vn 0.3736 0.5855 0.7194
vn -0.0750 -0.5987 0.7975
vn -0.0082 0.8903 -0.4553
vn -0.3653 -0.0577 -0.9291
vn -0.2443 0.7173 -0.6526
vn -0.3856 0.2237 0.8951
vn 0.1027 0.7415 -0.6631
vn -0.0165 -0.9974 0.0703
vn 0.3245 -0.2680 -0.9071
vn 0.7988 -0.5945 0.0923
vn 0.3913 -0.4848 0.7822
vn 0.6958 0.5442 -0.4687
vn -0.2942 0.8659 -0.4046
vn 0.9410 0.2755 0.1964
vn 0.7269 0.3121 0.6117
vn -0.5160 0.6018 -0.6096
vn 0.6362 0.4823 -0.6021
vn -0.2688 -0.3307 0.9046
vn -0.6489 -0.6823 0.3367
vn 0.9283 0.3324 0.1664
vn 0.9130 0.3879 0.1261
vn 0.8144 0.5301 -0.2361
vn 0.9595 0.2529 0.1241
vn 0.9156 0.3570 0.1853
vt 2.873000 0.191000
vt 2.904300 0.177000
vt 2.849600 0.167600
vt 2.943400 0.208400
vt 2.882800 0.225100
vt 2.970700 0.237900
vt 2.974600 0.274700
vt 2.892600 0.265100
vt 2.943400 0.296400
vt 2.878900 0.313700
vt 2.925800 0.338900
vt 2.830100 0.268300
vt 2.867200 0.352800
vt 2.894500 0.387900
vt 2.824200 0.241100
vt 2.777300 0.268300
vt 2.826200 0.305400
vt 2.853500 0.410200
vt 2.886700 0.417200
vt 2.816400 0.351100
vt 2.808600 0.396200
vt 2.767600 0.296100
vt 2.763700 0.368400
vt 2.763700 0.392800
vt 2.767600 0.339600
vt 2.773400 0.226300
vt 2.812500 0.205800
vt 2.804700 0.177400
vt 2.759800 0.180400
vt 2.615200 0.039900
vt 2.627000 0.023300
vt 2.566400 0.015900
vt 2.546900 0.034200
vt 2.582000 0.056100
vt 2.546900 0.124500
vt 2.613300 0.128800
vt 2.619100 0.114400
vt 2.529300 0.050800
vt 2.476600 0.039200
vt 2.584000 0.067800
vt 2.544900 0.097400
vt 2.584000 0.084400
vt 2.470700 0.057000
vt 2.523400 0.065700
vt 2.503900 0.109900
vt 2.513700 0.136600
vt 2.459000 0.117700
vt 2.502000 0.087800
vt 2.466800 0.101000
vt 2.406200 0.101800
vt 2.468800 0.074300
vt 2.406200 0.088500
vt 2.375000 0.072600
vt 2.416000 0.078200
vt 2.408200 0.067600
vt 2.418000 0.050600
vt 0.000000 0.000000
s 1
usemtl MinosPrime_Body_default.001
f 3/1/1 4/2/2 5/3/3
f 3/1/1 6/4/4 4/2/2
f 10/5/5 6/4/4 3/1/1
f 2/6/6 6/4/4 10/5/5
f 1/7/7 2/6/6 10/5/5
f 11/8/8 1/7/7 10/5/5
f 1/7/7 11/8/8 7/9/9
f 12/10/10 7/9/9 11/8/8
f 7/9/9 12/10/10 8/11/11
f 11/8/8 10/5/5 13/12/12
f 11/8/8 13/12/12 12/10/10
f 14/13/13 8/11/11 12/10/10
f 9/14/14 8/11/11 14/13/13
f 10/5/5 3/1/1 15/15/15
f 15/15/15 13/12/12 10/5/5
f 13/12/12 15/15/15 16/16/16
f 17/17/17 12/10/10 13/12/12
f 12/10/10 17/17/17 14/13/13
f 13/12/12 16/16/16 17/17/17
f 14/13/13 5/18/3 9/14/14
f 4/19/2 9/14/14 5/18/3
f 18/20/18 5/18/3 14/13/13
f 18/20/18 14/13/13 17/17/17
f 19/21/19 5/18/3 18/20/18
f 20/22/20 17/17/17 16/16/16
f 17/17/17 20/22/20 18/20/18
f 19/21/19 18/20/18 21/23/21
f 21/23/21 22/24/22 19/21/19
f 23/25/23 21/23/21 18/20/18
f 23/25/23 18/20/18 20/22/20
f 24/26/24 16/16/16 15/15/15
f 15/15/15 25/27/25 24/26/24
f 25/27/25 15/15/15 3/1/1
f 19/28/19 25/27/25 3/1/1
f 3/1/1 5/3/3 19/28/19
f 19/28/19 22/29/22 25/27/25
f 24/26/24 25/27/25 22/29/22
f 27/30/26 26/31/27 28/32/28
f 29/33/29 27/30/26 28/32/28
f 30/34/30 27/30/26 29/33/29
f 28/35/28 26/36/27 31/37/31
f 32/38/32 30/34/30 29/33/29
f 32/38/32 29/33/29 33/39/33
f 34/40/34 30/34/30 32/38/32
f 28/35/28 31/37/31 36/41/35
f 36/41/35 35/42/36 34/40/34
f 37/43/37 32/38/32 33/39/33
f 39/44/38 34/40/34 32/38/32
f 36/41/35 34/40/34 39/44/38
f 28/35/28 36/41/35 40/45/39
f 29/46/29 28/35/28 40/45/39
f 29/46/29 40/45/39 33/47/33
f 41/48/40 36/41/35 39/44/38
f 41/48/40 40/45/39 36/41/35
f 42/49/41 33/47/33 40/45/39
f 42/49/41 40/45/39 41/48/40
f 33/47/33 42/49/41 38/50/42
f 41/48/40 39/44/38 43/51/43
f 42/49/41 41/48/40 43/51/43
f 43/51/43 39/44/38 37/43/44
f 38/50/42 42/49/41 44/52/45
f 42/49/41 43/51/43 44/52/45
f 45/53/46 38/50/42 44/52/45
f 43/51/43 37/43/44 46/54/47
f 45/53/46 44/52/45 46/54/48
f 47/55/49 37/43/50 38/56/42
f 45/53/46 47/55/49 38/56/42
s 0
f 4/57/51 7/57/51 9/57/51
f 6/57/52 7/57/52 4/57/52
f 7/57/53 8/57/53 9/57/53
f 6/57/54 2/57/54 7/57/54
f 2/57/55 1/57/55 7/57/55
