# Blender 4.4.0
# www.blender.org
mtllib Minos_Body.mtl
o Minos_Body
v 0.091100 0.390220 -0.007772
v 0.161100 0.368720 -0.002472
v 0.153100 0.367720 -0.040072
v 0.054300 0.011820 -0.065272
v 0.007700 -0.011480 -0.035172
v 0.002300 0.018020 -0.055472
v -0.003100 -0.011480 -0.035172
v -0.049700 0.011820 -0.065272
v 0.122700 0.287920 -0.051872
v -0.156500 0.368720 -0.002472
v -0.086500 0.390220 -0.007772
v -0.148500 0.367720 -0.040072
v -0.118100 0.287920 -0.051872
v 0.113800 0.254420 -0.004872
v 0.124300 0.274320 -0.015772
v 0.125000 0.298820 0.036828
v 0.100000 0.247820 0.040228
v 0.084400 0.159420 0.010428
v 0.116400 0.305520 0.050028
v 0.151700 0.332620 0.020628
v 0.109400 0.355020 0.030228
v 0.063500 0.295620 0.082528
v 0.091700 0.251120 0.079428
v 0.040500 0.370720 0.033728
v 0.044300 0.415620 -0.013572
v 0.074500 0.172420 0.042728
v 0.083300 0.222120 0.057628
v 0.054400 0.244120 0.101128
v 0.046900 0.221320 0.082728
v 0.041200 0.174220 0.072728
v 0.041900 0.103220 0.080128
v 0.085600 0.099220 0.053028
v 0.105900 0.073620 0.010428
v 0.113000 0.022120 0.010228
v 0.094600 0.038120 0.067028
v 0.049300 0.031520 0.074928
v 0.002300 0.250920 0.096628
v 0.002300 0.290820 0.085328
v -0.058900 0.295620 0.082528
v 0.002300 0.233220 0.096128
v -0.049800 0.244120 0.101128
v 0.002300 0.188020 0.083628
v 0.002300 0.102120 0.091428
v -0.042300 0.221320 0.082728
v -0.036600 0.174220 0.072728
v -0.037300 0.103220 0.080128
v -0.044700 0.031520 0.074928
v 0.002300 0.019320 0.088328
v 0.002300 -0.003380 0.074828
v -0.010900 -0.012680 0.049428
v 0.015500 -0.012680 0.049428
v -0.000200 -0.012880 0.012628
v 0.004800 -0.012880 0.012628
v 0.101400 0.261820 -0.054672
v 0.071600 0.187520 -0.027772
v 0.072900 0.156620 -0.019872
v 0.096100 0.059220 -0.044672
v 0.098600 0.011920 -0.044372
v 0.054800 0.062520 -0.067672
v 0.002300 0.149020 -0.029772
v 0.002300 0.063820 -0.057072
v -0.050200 0.062520 -0.067672
v -0.091500 0.059220 -0.044672
v -0.094000 0.011920 -0.044372
v -0.108400 0.022120 0.010228
v -0.101300 0.073620 0.010428
v -0.079800 0.159420 0.010428
v -0.068300 0.156620 -0.019872
v -0.067000 0.187520 -0.027772
v -0.109200 0.254420 -0.004872
v -0.096800 0.261820 -0.054672
v 0.002300 0.187420 -0.038872
v -0.046400 0.248520 -0.068172
v 0.051000 0.248520 -0.068172
v -0.049000 0.294220 -0.075372
v 0.002300 0.266020 -0.067672
v 0.053600 0.294220 -0.075372
v -0.052800 0.351820 -0.069272
v -0.136700 0.337519 -0.069772
v 0.002300 0.345720 -0.064272
v 0.057400 0.351820 -0.069272
v 0.141300 0.337519 -0.069772
v -0.083900 0.377420 -0.041572
v -0.035600 0.396920 -0.045072
v 0.002300 0.398320 -0.039072
v 0.040200 0.396920 -0.045072
v 0.088500 0.377420 -0.041572
v 0.030100 0.438820 -0.031272
v 0.002300 0.438620 -0.031272
v -0.025500 0.438820 -0.031272
v -0.039700 0.415620 -0.013572
v 0.033200 0.419220 0.019228
v 0.002300 0.404020 0.036928
v 0.002300 0.369820 0.037528
v -0.028600 0.419220 0.019228
v 0.002300 0.340120 0.068628
v -0.035900 0.370720 0.033728
v -0.104800 0.355020 0.030228
v -0.111800 0.305520 0.050028
v -0.087100 0.251120 0.079428
v -0.078700 0.222120 0.057628
v -0.095400 0.247820 0.040228
v -0.069900 0.172420 0.042728
v -0.147100 0.332620 0.020628
v -0.120400 0.298820 0.036828
v -0.119700 0.274320 -0.015772
v -0.081000 0.099220 0.053028
v -0.090000 0.038120 0.067028
v 0.055897 0.025064 0.006388
vn 0.3067 0.9350 0.1781
vn 0.3403 0.8420 0.4187
vn 0.2080 0.8758 -0.4355
vn 0.2126 -0.6221 -0.7535
vn 0.1867 -0.9136 -0.3611
vn -0.0000 -0.3211 -0.9470
vn -0.0488 -0.9009 -0.4313
vn -0.1740 -0.5467 -0.8191
vn -0.3403 0.8420 0.4187
vn -0.3067 0.9350 0.1781
vn -0.2080 0.8758 -0.4355
vn 0.9051 -0.4242 -0.0303
vn 0.8604 -0.5023 -0.0853
vn 0.7868 -0.3286 0.5225
vn 0.9028 -0.3325 0.2726
vn 0.9991 0.0150 -0.0401
vn 0.6387 0.0732 0.7660
vn 0.4502 0.3405 0.8254
vn 0.2858 0.5903 0.7549
vn 0.2536 0.3713 0.8932
vn 0.7168 -0.2215 0.6611
vn 0.2472 0.5726 0.7816
vn 0.7705 0.6368 -0.0297
vn 0.8165 -0.0943 0.5696
vn 0.7327 -0.4131 0.5408
vn 0.2507 -0.1905 0.9492
vn 0.3430 -0.4687 0.8140
vn 0.4737 -0.0612 0.8786
vn 0.3840 0.0876 0.9192
vn 0.7815 0.2286 0.5805
vn 0.9808 0.1838 0.0646
vn 0.7879 -0.6020 0.1296
vn 0.6196 -0.4294 0.6570
vn 0.3778 -0.5302 0.7591
vn -0.0000 0.1542 0.9880
vn -0.0000 0.2954 0.9554
vn -0.2539 0.3716 0.8930
vn -0.0000 -0.2424 0.9702
vn -0.2507 -0.1905 0.9492
vn -0.0000 -0.1187 0.9929
vn -0.0000 0.0287 0.9996
vn -0.3430 -0.4690 0.8139
vn -0.4733 -0.0610 0.8788
vn -0.3840 0.0876 0.9192
vn -0.3493 -0.4161 0.8395
vn -0.0000 -0.3051 0.9523
vn -0.0000 -0.7400 0.6726
vn -0.2539 -0.9292 0.2687
vn 0.4008 -0.8938 0.2012
vn -0.1269 -0.9916 -0.0238
vn 0.2977 -0.9545 0.0190
vn 0.5799 -0.4009 -0.7093
vn 0.4258 -0.3522 -0.8334
vn 0.5427 -0.3688 -0.7547
vn 0.6558 0.1342 -0.7429
vn 0.7718 0.1595 -0.6156
vn 0.5943 -0.6827 -0.4251
vn 0.1623 0.1558 -0.9744
vn -0.0000 0.1136 -0.9935
vn -0.0000 0.1422 -0.9898
vn -0.1621 0.1561 -0.9744
vn -0.7718 0.1595 -0.6156
vn -0.6823 -0.5494 -0.4823
vn -0.8780 -0.4622 0.1243
vn -0.9808 0.1842 0.0644
vn -0.9991 0.0150 -0.0401
vn -0.6558 0.1342 -0.7429
vn -0.5429 -0.3685 -0.7546
vn -0.9051 -0.4242 -0.0303
vn -0.5799 -0.4009 -0.7093
vn -0.0000 -0.3491 -0.9371
vn -0.1223 -0.3210 -0.9391
vn 0.1223 -0.3210 -0.9391
vn -0.0983 -0.0202 -0.9950
vn -0.4258 -0.3522 -0.8334
vn -0.0000 -0.1642 -0.9864
vn 0.0983 -0.0202 -0.9950
vn -0.0589 0.3090 -0.9492
vn -0.0426 0.2649 -0.9633
vn -0.0000 0.2515 -0.9678
vn 0.0594 0.3089 -0.9492
vn 0.0426 0.2649 -0.9633
vn -0.2205 0.7804 -0.5851
vn -0.2111 0.5531 -0.8060
vn -0.0000 0.3369 -0.9415
vn 0.2100 0.5533 -0.8061
vn 0.2205 0.7804 -0.5851
vn 0.3194 0.3144 -0.8940
vn -0.0014 0.1896 -0.9819
vn -0.3194 0.3144 -0.8940
vn -0.7719 0.6351 -0.0285
vn 0.7437 0.2321 0.6269
vn -0.0000 0.4968 0.8678
vn -0.0000 0.0175 0.9998
vn -0.7433 0.2316 0.6276
vn -0.0000 0.5519 0.8339
vn -0.2466 0.5727 0.7818
vn -0.2858 0.5903 0.7549
vn -0.6388 0.0732 0.7659
vn -0.7168 -0.2215 0.6611
vn -0.7327 -0.4131 0.5408
vn -0.9028 -0.3325 0.2726
vn -0.8165 -0.0943 0.5696
vn -0.4502 0.3405 0.8254
vn -0.7838 -0.3318 0.5249
vn -0.8603 -0.5028 -0.0845
vn -0.7815 0.2286 0.5805
vn -0.6756 -0.2595 0.6901
vn 0.3083 -0.9421 0.1322
vn -0.8144 -0.5301 0.2361
vn -0.9595 -0.2529 -0.1241
vn -0.9283 -0.3324 -0.1664
vn -0.9156 -0.3570 -0.1853
vn 0.9283 -0.3324 -0.1664
vn -0.9130 -0.3879 -0.1261
vn 0.9130 -0.3879 -0.1261
vn 0.8144 -0.5301 0.2361
vn 0.9595 -0.2529 -0.1241
vn 0.9156 -0.3570 -0.1853
vt 0.322000 0.892100
vt 0.374300 0.849100
vt 0.391100 0.882800
vt 0.780800 0.960400
vt 0.829100 0.994100
vt 0.834500 0.958000
vt 0.839400 0.994100
vt 0.887700 0.960900
vt 0.031000 0.846700
vt 0.082600 0.890100
vt 0.013600 0.880400
vt 0.372800 0.718800
vt 0.388900 0.739300
vt 0.339400 0.773400
vt 0.323500 0.717800
vt 0.335900 0.619100
vt 0.323000 0.779800
vt 0.367700 0.810500
vt 0.324000 0.835400
vt 0.261500 0.767600
vt 0.287400 0.727500
vt 0.249500 0.866200
vt 0.284700 0.931200
vt 0.300800 0.634800
vt 0.296900 0.692400
vt 0.251500 0.719200
vt 0.251500 0.691900
vt 0.250500 0.638700
vt 0.246000 0.561500
vt 0.297600 0.555700
vt 0.344200 0.531700
vt 0.348600 0.476600
vt 0.292200 0.493900
vt 0.251500 0.489500
vt 0.203500 0.723100
vt 0.203200 0.763200
vt 0.144900 0.767100
vt 0.203600 0.705100
vt 0.155500 0.718300
vt 0.204000 0.653800
vt 0.204600 0.561500
vt 0.156000 0.690900
vt 0.157700 0.638200
vt 0.163300 0.561000
vt 0.158700 0.488800
vt 0.205200 0.485400
vt 0.205300 0.463100
vt 0.191800 0.438700
vt 0.219200 0.439000
vt 0.203100 0.400400
vt 0.208400 0.400400
vt 0.211800 0.350600
vt 0.200400 0.350600
vt 0.688000 0.702600
vt 0.730500 0.674300
vt 0.707500 0.642100
vt 0.682100 0.679700
vt 0.750500 0.766100
vt 0.711900 0.801800
vt 0.746600 0.803700
vt 0.742200 0.914100
vt 0.690900 0.889600
vt 0.680700 0.943800
vt 0.733900 0.959000
vt 0.783200 0.913100
vt 0.834500 0.812000
vt 0.834500 0.910600
vt 0.885700 0.913100
vt 0.926300 0.914600
vt 0.934600 0.959000
vt 0.987800 0.944300
vt 0.978000 0.890100
vt 0.957000 0.802200
vt 0.922900 0.804200
vt 0.918500 0.766600
vt 0.981400 0.703100
vt 0.939000 0.674800
vt 0.834500 0.765600
vt 0.885700 0.688500
vt 0.783700 0.688000
vt 0.887200 0.642100
vt 0.961900 0.642600
vt 0.835000 0.671900
vt 0.782700 0.641600
vt 0.891600 0.585000
vt 0.974600 0.597200
vt 0.835000 0.588400
vt 0.778300 0.584500
vt 0.695300 0.596700
vt 0.927700 0.552200
vt 0.991200 0.563000
vt 0.941900 0.520500
vt 0.877000 0.529800
vt 0.835000 0.525900
vt 0.793000 0.529800
vt 0.742200 0.552200
vt 0.678700 0.562500
vt 0.728000 0.520000
vt 0.773900 0.495800
vt 0.804200 0.480000
vt 0.835000 0.481000
vt 0.866200 0.480000
vt 0.896500 0.496100
vt 0.246800 0.928200
vt 0.202500 0.865200
vt 0.202100 0.908200
vt 0.157200 0.927200
vt 0.202900 0.816400
vt 0.155400 0.865700
vt 0.119400 0.930200
vt 0.081500 0.834000
vt 0.083200 0.778300
vt 0.119600 0.726100
vt 0.110600 0.690900
vt 0.083500 0.715800
vt 0.107500 0.633300
vt 0.038100 0.808600
vt 0.066900 0.771500
vt 0.034200 0.716300
vt 0.017900 0.736800
vt 0.072400 0.617700
vt 0.111900 0.554200
vt 0.065600 0.529800
vt 0.061900 0.474400
vt 0.118000 0.492700
vt 0.987300 0.680200
vt 0.397325 0.581725
vt 0.480350 0.698525
vt 0.000000 0.000000
s 1
usemtl MinosPrime_Body_default.001
f 1/1/1 2/2/2 3/3/3
f 4/4/4 5/5/5 6/6/6
f 7/7/7 8/8/8 6/6/6
f 5/5/5 7/7/7 6/6/6
f 10/9/9 11/10/10 12/11/11
f 14/12/12 15/13/13 16/14/14
f 14/12/12 16/14/14 17/15/15
f 17/15/15 18/16/16 14/12/12
f 19/17/17 17/15/15 16/14/14
f 20/18/18 19/17/17 16/14/14
f 21/19/19 19/17/17 20/18/18
f 21/19/19 22/20/20 19/17/17
f 2/2/2 21/19/19 20/18/18
f 21/19/19 2/2/2 1/1/1
f 17/15/15 19/17/17 23/21/21
f 23/21/21 19/17/17 22/20/20
f 21/19/19 24/22/22 22/20/20
f 21/19/19 1/1/1 24/22/22
f 1/1/1 25/23/23 24/22/22
f 26/24/24 18/16/16 17/15/15
f 23/21/21 27/25/25 17/15/15
f 27/25/25 26/24/24 17/15/15
f 23/21/21 28/26/26 27/25/25
f 22/20/20 28/26/26 23/21/21
f 29/27/27 26/24/24 27/25/25
f 28/26/26 29/27/27 27/25/25
f 30/28/28 26/24/24 29/27/27
f 31/29/29 26/24/24 30/28/28
f 32/30/30 18/16/16 26/24/24
f 32/30/30 26/24/24 31/29/29
f 32/30/30 33/31/31 18/16/16
f 32/30/30 34/32/32 33/31/31
f 35/33/33 34/32/32 32/30/30
f 31/29/29 35/33/33 32/30/30
f 36/34/34 35/33/33 31/29/29
f 37/35/35 28/26/26 22/20/20
f 38/36/36 37/35/35 22/20/20
f 37/35/35 38/36/36 39/37/37
f 37/35/35 40/38/38 28/26/26
f 40/38/38 29/27/27 28/26/26
f 41/39/39 37/35/35 39/37/37
f 40/38/38 37/35/35 41/39/39
f 40/38/38 42/40/40 29/27/27
f 29/27/27 42/40/40 30/28/28
f 42/40/40 43/41/41 30/28/28
f 31/29/29 30/28/28 43/41/41
f 31/29/29 43/41/41 36/34/34
f 42/40/40 40/38/38 44/42/42
f 44/42/42 40/38/38 41/39/39
f 42/40/40 44/42/42 45/43/43
f 42/40/40 45/43/43 43/41/41
f 46/44/44 43/41/41 45/43/43
f 46/44/44 47/45/45 43/41/41
f 48/46/46 36/34/34 43/41/41
f 48/46/46 43/41/41 47/45/45
f 49/47/47 36/34/34 48/46/46
f 47/45/45 49/47/47 48/46/46
f 50/48/48 49/47/47 47/45/45
f 49/47/47 51/49/49 36/34/34
f 50/48/48 51/49/49 49/47/47
f 50/48/48 52/50/50 51/49/49
f 53/51/51 51/49/49 52/50/50
f 53/51/51 52/50/50 5/52/5
f 7/53/7 5/52/5 52/50/50
f 14/54/12 54/55/52 9/56/53
f 15/57/13 14/54/12 9/56/53
f 14/54/12 55/58/54 54/55/52
f 18/59/16 55/58/54 14/54/12
f 55/58/54 18/59/16 56/60/55
f 56/60/55 18/59/16 57/61/56
f 18/59/16 33/62/31 57/61/56
f 33/62/31 34/63/32 57/61/56
f 34/63/32 58/64/57 57/61/56
f 58/64/57 4/4/4 57/61/56
f 57/61/56 4/4/4 59/65/58
f 57/61/56 59/65/58 56/60/55
f 56/60/55 59/65/58 60/66/59
f 4/4/4 6/6/6 59/65/58
f 56/60/55 60/66/59 55/58/54
f 61/67/60 59/65/58 6/6/6
f 59/65/58 61/67/60 60/66/59
f 61/67/60 6/6/6 62/68/61
f 61/67/60 62/68/61 60/66/59
f 8/8/8 62/68/61 6/6/6
f 8/8/8 63/69/62 62/68/61
f 8/8/8 64/70/63 63/69/62
f 64/70/63 65/71/64 63/69/62
f 65/71/64 66/72/65 63/69/62
f 66/72/65 67/73/66 63/69/62
f 62/68/61 63/69/62 68/74/67
f 62/68/61 68/74/67 60/66/59
f 67/73/66 68/74/67 63/69/62
f 67/73/66 69/75/68 68/74/67
f 69/75/68 67/73/66 70/76/69
f 69/75/68 70/76/69 71/77/70
f 68/74/67 69/75/68 60/66/59
f 72/78/71 60/66/59 69/75/68
f 72/78/71 55/58/54 60/66/59
f 72/78/71 69/75/68 73/79/72
f 69/75/68 71/77/70 73/79/72
f 55/58/54 72/78/71 74/80/73
f 54/55/52 55/58/54 74/80/73
f 75/81/74 73/79/72 71/77/70
f 13/82/75 75/81/74 71/77/70
f 72/78/71 73/79/72 76/83/76
f 74/80/73 72/78/71 76/83/76
f 75/81/74 76/83/76 73/79/72
f 74/80/73 77/84/77 54/55/52
f 76/83/76 77/84/77 74/80/73
f 77/84/77 9/56/53 54/55/52
f 78/85/78 75/81/74 13/82/75
f 78/85/78 13/82/75 79/86/79
f 80/87/80 76/83/76 75/81/74
f 76/83/76 80/87/80 77/84/77
f 80/87/80 75/81/74 78/85/78
f 77/84/77 80/87/80 81/88/81
f 77/84/77 81/88/81 9/56/53
f 9/56/53 81/88/81 82/89/82
f 78/85/78 79/86/79 83/90/83
f 12/91/11 83/90/83 79/86/79
f 83/90/83 12/91/11 11/92/10
f 78/85/78 83/90/83 84/93/84
f 84/93/84 80/87/80 78/85/78
f 80/87/80 84/93/84 85/94/85
f 86/95/86 80/87/80 85/94/85
f 80/87/80 86/95/86 81/88/81
f 87/96/87 81/88/81 86/95/86
f 82/89/82 81/88/81 87/96/87
f 87/96/87 3/97/3 82/89/82
f 3/97/3 87/96/87 1/98/1
f 87/96/87 86/95/86 1/98/1
f 1/98/1 86/95/86 25/99/23
f 86/95/86 88/100/88 25/99/23
f 85/94/85 88/100/88 86/95/86
f 88/100/88 85/94/85 89/101/89
f 85/94/85 90/102/90 89/101/89
f 90/102/90 85/94/85 84/93/84
f 90/102/90 84/93/84 91/103/91
f 84/93/84 11/92/10 91/103/91
f 84/93/84 83/90/83 11/92/10
f 25/23/23 92/104/92 24/22/22
f 24/22/22 92/104/92 94/105/93
f 92/104/92 93/106/94 94/105/93
f 93/106/94 95/107/95 94/105/93
f 96/108/96 24/22/22 94/105/93
f 24/22/22 96/108/96 22/20/20
f 22/20/20 96/108/96 38/36/36
f 96/108/96 39/37/37 38/36/36
f 97/109/97 96/108/96 94/105/93
f 95/107/95 97/109/97 94/105/93
f 96/108/96 97/109/97 39/37/37
f 95/107/95 91/110/91 97/109/97
f 91/110/91 11/10/10 97/109/97
f 11/10/10 98/111/98 97/109/97
f 97/109/97 98/111/98 39/37/37
f 39/37/37 98/111/98 99/112/99
f 99/112/99 100/113/100 39/37/37
f 41/39/39 39/37/37 100/113/100
f 41/39/39 100/113/100 101/114/101
f 44/42/42 41/39/39 101/114/101
f 101/114/101 100/113/100 102/115/102
f 99/112/99 102/115/102 100/113/100
f 103/116/103 44/42/42 101/114/101
f 103/116/103 101/114/101 102/115/102
f 103/116/103 45/43/43 44/42/42
f 103/116/103 46/44/44 45/43/43
f 99/112/99 98/111/98 104/117/104
f 98/111/98 10/9/9 104/117/104
f 10/9/9 98/111/98 11/10/10
f 99/112/99 104/117/104 105/118/105
f 102/115/102 99/112/99 105/118/105
f 105/118/105 70/119/69 102/115/102
f 106/120/106 70/119/69 105/118/105
f 67/121/66 102/115/102 70/119/69
f 67/121/66 103/116/103 102/115/102
f 67/121/66 107/122/107 103/116/103
f 103/116/103 107/122/107 46/44/44
f 66/123/65 107/122/107 67/121/66
f 65/124/64 107/122/107 66/123/65
f 65/124/64 108/125/108 107/122/107
f 108/125/108 46/44/44 107/122/107
f 108/125/108 47/45/45 46/44/44
f 71/77/70 70/76/69 13/82/75
f 70/76/69 106/126/106 13/82/75
f 35/33/33 36/34/34 109/127/109 34/32/32
f 36/34/34 51/49/49 53/51/51 109/127/109
f 34/63/32 109/128/109 4/4/4 58/64/57
f 109/128/109 53/51/51 5/52/5 4/4/4
f 108/125/108 65/124/64 50/48/48 47/45/45
f 65/71/64 64/70/63 52/50/50 50/48/48
f 64/70/63 8/8/8 7/7/7 52/50/50
s 0
f 105/129/110 104/129/110 106/129/110
f 12/129/111 79/129/111 104/129/111
f 104/129/112 13/129/112 106/129/112
f 10/129/113 12/129/113 104/129/113
f 9/129/114 20/129/114 15/129/114
f 104/129/115 79/129/115 13/129/115
f 82/129/116 20/129/116 9/129/116
f 20/129/117 16/129/117 15/129/117
f 82/129/118 3/129/118 20/129/118
f 3/129/119 2/129/119 20/129/119
