# Blender 4.4.0
# www.blender.org
mtllib Minos_Right_Leg.mtl
o Minos_Right_Leg
v 0.035083 0.014629 -0.019366
v 0.036583 -0.013771 0.012034
v 0.031683 -0.057571 -0.012266
v 0.026383 -0.075671 -0.049266
v 0.038283 -0.114871 -0.023966
v 0.013883 -0.274571 -0.045866
v 0.029683 -0.179571 -0.013766
v 0.022383 -0.272971 -0.018866
v -0.004917 0.017429 -0.035966
v -0.016017 -0.078971 -0.056566
v -0.009417 -0.277271 -0.051366
v 0.011583 -0.276671 0.002434
v 0.021283 -0.129471 0.009734
v -0.007817 -0.130771 0.020634
v -0.002117 -0.276971 0.006234
v -0.003017 -0.020171 0.045534
v 0.023383 -0.015471 0.034834
v 0.013583 -0.338171 -0.058066
v 0.020483 -0.338171 -0.021066
v -0.008017 -0.338171 0.108734
v -0.032517 -0.338171 0.086534
v -0.033917 -0.338171 0.047034
v 0.022683 -0.338171 0.109334
v 0.021883 -0.338171 0.035234
v -0.023317 -0.338171 -0.025266
v -0.013517 -0.338171 -0.057566
v -0.028217 0.016729 -0.017866
v -0.022017 -0.016471 0.031134
v -0.030917 -0.116571 -0.030866
v -0.016117 -0.281371 -0.013966
v -0.032217 -0.010071 0.004834
v -0.025617 -0.130971 0.005334
v -0.005217 -0.321371 0.104734
v 0.021583 -0.321771 0.104334
v -0.004417 -0.298271 0.028434
v 0.014583 -0.298871 0.017234
v -0.017917 -0.305571 -0.009366
v -0.026617 -0.321271 0.015734
v -0.023017 -0.321571 0.088234
vn 0.9968 -0.0438 0.0671
vn 0.6673 0.7311 -0.1420
vn 0.8156 0.3274 0.4771
vn 0.6531 0.0913 -0.7517
vn 0.9995 -0.0187 -0.0262
vn 0.6978 0.0211 -0.7160
vn 0.9699 -0.1077 0.2185
vn 0.9991 -0.0180 0.0378
vn -0.1021 0.8317 -0.5458
vn -0.4327 0.0775 -0.8982
vn -0.5572 0.0439 -0.8292
vn 0.6242 0.2492 0.7405
vn 0.6969 -0.0987 0.7103
vn -0.1852 -0.1572 0.9700
vn -0.4150 0.2462 0.8759
vn -0.1064 0.3920 0.9138
vn 0.4849 0.4171 0.7687
vn 0.5151 -0.5466 -0.6602
vn 0.7367 -0.6742 -0.0532
vn -0.3276 -0.5292 0.7827
vn -0.8326 -0.4488 0.3245
vn -0.8572 -0.5148 0.0126
vn 0.5835 -0.4799 0.6551
vn 0.7630 -0.6460 -0.0229
vn -0.7833 -0.5890 -0.1990
vn -0.5336 -0.5368 -0.6536
vn -0.6254 0.7802 -0.0131
vn -0.6315 0.5130 0.5814
vn -0.9766 -0.0316 -0.2127
vn -0.9827 0.0020 0.1849
vn -0.8215 0.4729 0.3185
vn -0.8865 -0.0885 0.4543
vn -0.2600 0.6497 0.7144
vn 0.6099 0.5816 0.5384
vn -0.3484 0.8812 0.3195
vn 0.8137 0.4727 0.3382
vn -0.9619 0.2734 0.0060
vn -0.9079 0.4176 -0.0374
vn -0.6526 0.6525 0.3852
vt 2.640600 0.720700
vt 2.615200 0.643600
vt 2.648400 0.673800
vt 2.605500 0.738300
vt 2.627000 0.777300
vt 2.568400 0.929700
vt 2.621100 0.843800
vt 2.595700 0.934100
vt 2.570300 0.637700
vt 2.566400 0.738300
vt 2.543000 0.928700
vt 2.439500 0.925300
vt 2.425800 0.832000
vt 2.464800 0.924800
vt 2.441400 0.776900
vt 2.400400 0.770000
vt 2.402300 0.710900
vt 2.472700 0.774900
vt 2.478500 0.923800
vt 2.455100 0.658700
vt 2.425800 0.656700
vt 2.398400 0.661100
vt 2.019500 0.300000
vt 2.074200 0.280300
vt 2.015600 0.267300
vt 2.070300 0.255400
vt 2.138700 0.029100
vt 2.123000 0.011400
vt 2.095700 0.009900
vt 2.138700 0.050700
vt 2.085900 0.049000
vt 2.046900 0.047100
vt 2.044900 0.016100
vt 2.021500 0.022600
vt 2.021500 0.041600
vt 2.539100 0.632300
vt 2.480500 0.657200
vt 2.533200 0.767600
vt 2.503900 0.929200
vt 2.509800 0.655800
vt 2.496100 0.776900
vt 2.107400 0.461400
vt 2.136700 0.458700
vt 2.111300 0.447800
vt 2.128900 0.445100
vt 2.162100 0.403100
vt 2.109400 0.377900
vt 2.130900 0.367900
vt 2.187500 0.355700
vt 2.109400 0.346200
vt 2.134800 0.322800
vt 2.121100 0.341600
vt 2.078100 0.301000
vt 2.029300 0.322500
vt 2.076200 0.348900
vt 2.091800 0.332000
vt 2.041000 0.349600
vt 2.072300 0.379400
vt 2.068400 0.414300
vt 2.097700 0.439200
vt 2.084000 0.446500
s 1
usemtl MinosPrime_Body_default.001
f 3/1/1 1/2/2 2/3/3
f 3/1/1 4/4/4 1/2/2
f 5/5/5 4/4/4 3/1/1
f 4/4/4 5/5/5 6/6/6
f 5/5/5 7/7/7 6/6/6
f 8/8/8 6/6/6 7/7/7
f 4/4/4 9/9/9 1/2/2
f 4/4/4 10/10/10 9/9/9
f 10/10/10 4/4/4 6/6/6
f 6/6/6 11/11/11 10/10/10
f 8/12/8 7/13/7 12/14/12
f 13/15/13 12/14/12 7/13/7
f 13/15/13 7/13/7 5/16/5
f 13/15/13 5/16/5 3/17/1
f 13/15/13 14/18/14 12/14/12
f 15/19/15 12/14/12 14/18/14
f 14/18/14 13/15/13 16/20/16
f 13/15/13 3/17/1 17/21/17
f 17/21/17 16/20/16 13/15/13
f 3/17/1 2/22/3 17/21/17
f 18/23/18 6/24/6 19/25/19
f 8/26/8 19/25/19 6/24/6
f 20/27/20 21/28/21 22/29/22
f 23/30/23 20/27/20 22/29/22
f 24/31/24 23/30/23 22/29/22
f 19/32/19 24/31/24 22/29/22
f 25/33/25 19/32/19 22/29/22
f 19/32/19 25/33/25 26/34/26
f 18/35/18 19/32/19 26/34/26
f 10/10/10 27/36/27 9/9/9
f 16/20/16 28/37/28 14/18/14
f 10/10/10 29/38/29 27/36/27
f 10/10/10 11/11/11 29/38/29
f 11/11/11 30/39/30 29/38/29
f 29/38/29 31/40/31 27/36/27
f 31/40/31 29/38/29 28/37/28
f 32/41/32 14/18/14 28/37/28
f 32/41/32 28/37/28 29/38/29
f 30/39/30 32/41/32 29/38/29
f 14/18/14 32/41/32 15/19/15
f 30/39/30 15/19/15 32/41/32
f 20/42/20 23/43/23 33/44/33
f 34/45/34 33/44/33 23/43/23
f 23/43/23 24/46/24 34/45/34
f 33/44/33 34/45/34 35/47/35
f 36/48/36 34/45/34 24/46/24
f 36/48/36 35/47/35 34/45/34
f 36/48/36 24/46/24 19/49/19
f 35/47/35 36/48/36 15/50/15
f 36/48/36 19/49/19 8/51/8
f 12/52/12 15/50/15 36/48/36
f 36/48/36 8/51/8 12/52/12
f 6/24/6 18/23/18 11/53/11
f 26/54/26 11/53/11 18/23/18
f 26/54/26 37/55/37 11/53/11
f 37/55/37 30/56/30 11/53/11
f 30/56/30 37/55/37 15/50/15
f 26/54/26 25/57/25 37/55/37
f 35/47/35 15/50/15 37/55/37
f 25/57/25 38/58/38 37/55/37
f 37/55/37 38/58/38 35/47/35
f 25/57/25 22/59/22 38/58/38
f 38/58/38 39/60/39 35/47/35
f 39/60/39 38/58/38 22/59/22
f 33/44/33 35/47/35 39/60/39
f 21/61/21 39/60/39 22/59/22
f 33/44/33 39/60/39 20/42/20
f 21/61/21 20/42/20 39/60/39
f 27/36/27 2/3/3 1/2/2 9/9/9
f 31/40/31 17/21/17 2/22/3 27/36/27
f 28/37/28 16/20/16 17/21/17 31/40/31
