# Blender 4.4.0
# www.blender.org
mtllib Minos_Lower_Right_Hand.mtl
o Minos_Lower_Right_Hand
v -0.075236 -0.122916 0.041701
v -0.103136 -0.101416 0.041501
v -0.120736 -0.124716 0.059201
v -0.073636 -0.146316 0.041201
v -0.068236 -0.129516 0.015001
v -0.117536 -0.155816 0.043501
v -0.090236 -0.180216 0.039001
v -0.146336 -0.165616 0.043801
v -0.098036 -0.197816 0.036501
v -0.157436 -0.184916 0.044701
v -0.131236 -0.231516 0.050401
v -0.167036 -0.215316 0.050901
v -0.107136 -0.224216 0.037501
v -0.025936 0.023084 0.005401
v -0.016236 0.008784 0.028201
v 0.037764 -0.024716 0.004701
v 0.032664 -0.021616 -0.019199
v 0.008264 -0.067916 -0.003399
v 0.019264 -0.010616 0.022101
v -0.002336 -0.063016 0.022601
v -0.049736 -0.106116 0.012101
v -0.038636 -0.032516 0.031801
v -0.072436 -0.069916 0.028901
v -0.111636 -0.108516 0.027401
v -0.050136 -0.028716 0.005201
v -0.077736 -0.069316 0.011001
v -0.088636 -0.113216 0.009001
v -0.039636 -0.035516 -0.013399
v -0.003436 0.007284 -0.023399
v -0.010936 -0.052516 -0.018499
v -0.077136 -0.158916 0.020901
v -0.093136 -0.178616 0.021801
v -0.099636 -0.199416 0.022001
v -0.105736 -0.225016 0.026601
v -0.136336 -0.147216 0.049501
v -0.136636 -0.135116 0.056901
v -0.143936 -0.145916 0.060701
v -0.142536 -0.155616 0.052601
v -0.153536 -0.165516 0.071601
v -0.153436 -0.171716 0.062601
v -0.160636 -0.164616 0.058101
v -0.160736 -0.160116 0.064601
v -0.153336 -0.152216 0.046601
v -0.154836 -0.142316 0.054801
v -0.142036 -0.145916 0.035401
v -0.138636 -0.122016 0.038501
v -0.133536 -0.138316 0.025901
v -0.148336 -0.165616 0.028501
v -0.111536 -0.147016 0.016601
v -0.119736 -0.171316 0.020401
v -0.131536 -0.195316 0.023901
v -0.161036 -0.187716 0.032701
v -0.135936 -0.229716 0.034401
v -0.164836 -0.219816 0.037901
v -0.105636 -0.117716 0.027101
v -0.121636 -0.124216 0.022901
v -0.120536 -0.139716 0.016201
v -0.105636 -0.146816 0.016701
v -0.075036 -0.125216 0.030201
v -0.076436 -0.145616 0.020401
v -0.089536 -0.147616 0.006701
v -0.113536 -0.138316 0.005401
v -0.115236 -0.118216 0.012601
v -0.097036 -0.109616 0.015101
v -0.088436 -0.120916 -0.002199
v -0.066236 -0.114816 0.021901
v -0.086036 -0.089816 0.022001
v -0.086036 -0.135916 -0.003799
v -0.058636 -0.121916 0.007501
v -0.062736 -0.102816 0.027901
v -0.074536 -0.088216 0.022701
v -0.054436 -0.131916 0.005201
v -0.048636 -0.120716 0.026501
v -0.056836 -0.141716 0.015501
v -0.058636 -0.133216 0.045601
v -0.051236 -0.104916 0.043101
v -0.086136 -0.100116 0.046901
v -0.065636 -0.083116 0.038801
v -0.067836 -0.069016 0.016501
v -0.060236 -0.114016 0.058701
v -0.077736 -0.092516 0.058301
v -0.078836 -0.063316 0.038601
v -0.091636 -0.064716 0.036701
v -0.099036 -0.076216 0.026101
v -0.074336 -0.052616 0.015301
v -0.092836 -0.070116 0.002101
v -0.089136 -0.049516 0.007601
v -0.059436 -0.053116 -0.006799
v -0.062636 -0.052116 -0.018299
v -0.022236 -0.068416 -0.009999
v -0.030636 -0.081216 -0.003399
v -0.058736 -0.081216 -0.005699
v -0.065036 -0.073016 -0.025099
v -0.015336 -0.062616 0.015001
v -0.023736 -0.069016 0.027001
v -0.019136 -0.068116 -0.029099
v -0.027736 -0.098416 -0.011699
v 0.007164 -0.073316 -0.010699
v -0.017536 -0.093616 -0.032399
v -0.001936 -0.049516 0.026101
v -0.004836 -0.099816 0.009101
v 0.015664 -0.093016 0.000201
v 0.013064 -0.074416 0.029801
v -0.005636 -0.085616 0.031501
v -0.023536 -0.016016 0.016901
v -0.011236 -0.040616 0.048601
v -0.030136 -0.053216 0.049001
v -0.034636 -0.008116 0.039001
v -0.024636 0.007084 0.005201
v -0.051936 -0.025816 0.019201
v -0.039036 0.013884 0.000301
v -0.054836 -0.017116 0.035801
v -0.051136 0.004284 -0.005699
v -0.017236 -0.015416 -0.040099
vn 0.5750 -0.0274 0.8177
vn -0.2803 0.7278 0.6259
vn -0.1115 0.2579 0.9597
vn 0.7504 -0.2291 0.6200
vn 0.6853 -0.4218 -0.5937
vn 0.0923 -0.2782 0.9561
vn 0.6501 -0.4257 0.6294
vn -0.5844 0.1885 0.7892
vn 0.7695 -0.2262 0.5972
vn -0.5853 0.3369 0.7375
vn 0.1183 -0.7116 0.6926
vn -0.7599 -0.1780 0.6252
vn 0.7448 -0.3814 0.5475
vn 0.7546 0.1505 -0.6386
vn 0.9696 0.0688 0.2350
vn 0.6112 -0.7377 -0.2869
vn 0.5215 -0.4100 0.7483
vn 0.6142 0.4085 0.6752
vn 0.0169 0.6389 0.7691
vn 0.5171 -0.7574 -0.3988
vn -0.3212 0.2928 0.9006
vn -0.3425 0.9387 -0.0405
vn -0.5619 0.5112 0.6504
vn -0.6259 0.5862 -0.5143
vn -0.8600 0.4965 -0.1176
vn -0.8142 0.4851 -0.3190
vn -0.2875 -0.0579 -0.9560
vn -0.5111 0.1510 -0.8461
vn 0.1165 0.6719 -0.7314
vn 0.0316 -0.3116 -0.9497
vn 0.6974 -0.4129 -0.5858
vn 0.5349 -0.3460 -0.7708
vn 0.6036 -0.2546 -0.7555
vn 0.5518 -0.3832 -0.7408
vn 0.1854 -0.3371 0.9230
vn -0.0646 0.2382 0.9691
vn 0.3568 0.1745 0.9177
vn 0.6848 -0.7243 -0.0797
vn 0.0434 -0.3189 0.9468
vn 0.0842 -0.9962 -0.0216
vn -0.7878 -0.4467 -0.4241
vn -0.8777 0.1537 0.4539
vn -0.6095 -0.3148 -0.7276
vn -0.8073 0.5557 0.1986
vn -0.9029 0.2310 -0.3625
vn -0.7263 0.6672 -0.1652
vn -0.5437 0.2332 -0.8062
vn -0.7546 0.2628 -0.6012
vn -0.2038 -0.0148 -0.9789
vn -0.1521 -0.0548 -0.9869
vn -0.2222 -0.1421 -0.9646
vn -0.8573 0.1618 -0.4887
vn -0.2083 -0.7645 -0.6101
vn -0.7273 -0.5025 -0.4675
vn -0.2659 -0.9154 -0.3021
vn 0.0082 -0.9122 -0.4096
vn 0.0286 -0.9785 0.2042
vn -0.5738 -0.3376 -0.7462
vn -0.7954 -0.2890 -0.5327
vn -0.6486 0.6566 -0.3849
vn -0.8225 0.5301 -0.2063
vn -0.4334 0.8640 0.2564
vn -0.1726 0.9111 -0.3744
vn -0.0235 0.4999 -0.8657
vn 0.0477 -0.2904 -0.9557
vn 0.4557 0.6348 -0.6240
vn 0.3277 0.7829 -0.5288
vn 0.6976 -0.1567 -0.6991
vn 0.9755 0.1479 -0.1627
vn 0.6643 0.4578 -0.5909
vn 0.6075 -0.7829 -0.1340
vn 0.2502 -0.7000 0.6689
vn -0.7923 -0.4346 0.4282
vn 0.9217 0.3446 0.1782
vn 0.7509 0.4015 -0.5244
vn -0.8546 -0.3432 0.3898
vn -0.5683 -0.6769 -0.4678
vn 0.8092 0.5351 0.2425
vn 0.2776 -0.1998 0.9397
vn -0.1541 0.1870 0.9702
vn 0.3045 0.7352 0.6056
vn 0.8276 0.4146 0.3785
vn -0.6068 0.5612 0.5628
vn -0.9902 -0.1342 0.0391
vn 0.4238 0.8126 0.4001
vn -0.7957 -0.2495 -0.5518
vn -0.1393 -0.8005 -0.5830
vn -0.5558 0.8214 -0.1283
vn 0.3393 0.9361 0.0929
vn -0.1390 0.8109 -0.5684
vn 0.3625 0.9302 0.0580
vn -0.4216 -0.8954 -0.1432
vn -0.5047 -0.2903 -0.8130
vn 0.2959 0.4575 -0.8385
vn -0.3413 -0.9285 0.1465
vn -0.4397 -0.5346 0.7217
vn 0.1619 -0.5410 -0.8253
vn 0.7710 0.2673 -0.5781
vn -0.2812 0.7730 -0.5687
vn 0.7475 0.6625 -0.0484
vn -0.0420 -0.9483 0.3145
vn 0.8585 -0.4946 -0.1356
vn 0.8636 -0.0867 0.4967
vn -0.0690 -0.7158 0.6949
vn -0.7223 -0.6264 0.2931
vn 0.5359 0.2881 0.7936
vn 0.8632 0.4305 0.2638
vn -0.4564 -0.3750 0.8069
vn 0.1486 0.6762 0.7215
vn 0.4814 0.7356 0.4765
vn -0.9329 -0.3465 -0.0979
vn -0.3774 0.7855 0.4905
vn -0.8354 0.1727 0.5218
vn -0.9872 0.1215 -0.1034
vn -0.7565 -0.4048 -0.5137
vt 2.324200 0.932600
vt 2.312500 0.961400
vt 2.341800 0.971700
vt 2.341800 0.925300
vt 2.322300 0.907700
vt 2.367200 0.953100
vt 2.373000 0.920900
vt 2.386700 0.971200
vt 2.390600 0.918000
vt 2.406200 0.971700
vt 2.433600 0.933100
vt 2.433600 0.967300
vt 2.416000 0.914600
vt 2.763700 0.392800
vt 2.763700 0.368400
vt 2.712900 0.375200
vt 2.710900 0.346400
vt 2.767600 0.339600
vt 2.767600 0.296100
vt 2.644500 0.349900
vt 2.716800 0.296100
vt 2.777300 0.268300
vt 2.617200 0.317400
vt 2.613300 0.343800
vt 2.664100 0.287800
vt 2.615200 0.288100
vt 2.607400 0.274200
vt 2.716800 0.265600
vt 2.662100 0.267100
vt 2.619100 0.250700
vt 2.716800 0.242600
vt 2.773400 0.226300
vt 2.714800 0.208500
vt 2.759800 0.180400
vt 2.705100 0.181200
vt 2.642600 0.215300
vt 2.611300 0.226300
vt 2.349600 0.906700
vt 2.371100 0.905300
vt 2.390600 0.904300
vt 2.416000 0.904800
vt 2.367200 0.972200
vt 2.357400 0.979500
vt 2.367200 0.984900
vt 2.377000 0.977100
vt 2.386700 0.996100
vt 2.392600 0.987800
vt 2.195300 0.213100
vt 2.197300 0.206500
vt 2.179700 0.213900
vt 2.179700 0.202900
vt 2.156200 0.217200
vt 2.183600 0.193000
vt 2.203100 0.199700
vt 2.173800 0.187100
vt 2.154300 0.194000
vt 2.166000 0.171800
vt 2.134800 0.162400
vt 2.130900 0.178600
vt 2.146500 0.211500
vt 2.150400 0.245600
vt 2.119100 0.214700
vt 2.101600 0.178500
vt 2.080100 0.191200
vt 2.084000 0.220500
vt 2.093800 0.242100
vt 2.121100 0.240800
vt 2.095700 0.262700
vt 2.125000 0.265600
vt 2.152300 0.268300
vt 2.097700 0.288100
vt 2.125000 0.297100
vt 2.152300 0.296100
vt 2.121100 0.311800
vt 2.156200 0.307900
vt 2.097700 0.298800
vt 2.201200 0.221100
vt 2.183600 0.224400
vt 2.169900 0.228900
vt 2.164100 0.246500
vt 2.164100 0.266600
vt 2.164100 0.295400
vt 2.205100 0.214500
vt 2.205100 0.205300
vt 2.970700 0.099000
vt 2.955100 0.088300
vt 2.935500 0.100800
vt 2.978500 0.074000
vt 2.990200 0.074300
vt 2.976600 0.043300
vt 2.990200 0.042500
vt 2.966800 0.020400
vt 2.953100 0.030100
vt 2.949200 0.053000
vt 2.951200 0.069100
vt 2.916000 0.049900
vt 2.904300 0.032000
vt 2.919900 0.061100
vt 2.900400 0.054100
vt 2.878900 0.036200
vt 2.923800 0.075700
vt 2.902300 0.086100
vt 2.900400 0.112400
vt 2.878900 0.056800
vt 2.851600 0.025100
vt 2.867200 0.096900
vt 2.849600 0.117400
vt 2.851600 0.048800
vt 2.886700 0.076300
vt 2.867200 0.076400
vt 2.834000 0.058500
vt 2.820300 0.032100
vt 2.835900 0.073200
vt 2.839800 0.093900
vt 2.814500 0.051200
vt 2.824200 0.095400
vt 2.835900 0.127300
vt 2.814500 0.070200
vt 2.787100 0.047900
vt 2.789100 0.063400
vt 2.738300 0.036600
vt 2.794900 0.120900
vt 2.796900 0.090800
vt 2.750000 0.057100
vt 2.755900 0.113900
vt 2.750000 0.136100
vt 2.753900 0.085100
vt 2.720700 0.056700
vt 2.689500 0.030800
vt 2.671900 0.051300
vt 2.724600 0.106100
vt 2.716800 0.081800
vt 2.695300 0.081100
vt 2.703100 0.107100
vt 2.685500 0.128900
vt 2.660200 0.070300
vt 2.615200 0.039900
vt 2.666000 0.100700
vt 2.625000 0.067500
vt 2.582000 0.056100
vt 2.619100 0.114400
vt 2.584000 0.067800
vt 2.627000 0.093500
vt 2.584000 0.084400
vt 2.544900 0.097400
s 1
usemtl MinosPrime_Body_default.001
f 1/1/1 2/2/2 3/3/3
f 1/1/1 3/3/3 4/4/4
f 5/5/5 1/1/1 4/4/4
f 6/6/6 4/4/4 3/3/3
f 6/6/6 7/7/7 4/4/4
f 6/6/6 8/8/8 7/7/7
f 7/7/7 8/8/8 9/9/9
f 10/10/10 9/9/9 8/8/8
f 11/11/11 9/9/9 10/10/10
f 12/12/12 11/11/11 10/10/10
f 11/11/11 13/13/13 9/9/9
f 17/14/14 16/15/15 18/16/16
f 20/17/17 18/16/16 16/15/15
f 19/18/18 20/17/17 16/15/15
f 19/18/18 15/19/19 20/17/17
f 18/16/16 20/17/17 21/20/20
f 15/19/19 22/21/21 20/17/17
f 14/22/22 22/21/21 15/19/19
f 1/23/1 21/20/20 20/17/17
f 22/21/21 1/23/1 20/17/17
f 1/23/1 5/24/5 21/20/20
f 1/23/1 22/21/21 23/25/23
f 1/23/1 23/25/23 2/26/2
f 2/26/2 23/25/23 24/27/24
f 25/28/25 23/25/23 22/21/21
f 25/28/25 22/21/21 14/22/22
f 26/29/26 24/27/24 23/25/23
f 23/25/23 25/28/25 26/29/26
f 24/27/24 26/29/26 27/30/27
f 28/31/28 26/29/26 25/28/25
f 25/28/25 14/22/22 28/31/28
f 26/29/26 28/31/28 27/30/27
f 29/32/29 28/31/28 14/22/22
f 28/31/28 30/33/30 27/30/27
f 29/32/29 30/33/30 28/31/28
f 29/32/29 17/34/14 30/33/30
f 18/35/16 30/33/30 17/34/14
f 30/33/30 18/35/16 21/36/20
f 30/33/30 21/36/20 27/30/27
f 21/36/20 5/37/5 27/30/27
f 4/4/4 31/38/31 5/5/5
f 7/7/7 31/38/31 4/4/4
f 7/7/7 32/39/32 31/38/31
f 7/7/7 9/9/9 32/39/32
f 33/40/33 32/39/32 9/9/9
f 33/40/33 9/9/9 34/41/34
f 13/13/13 34/41/34 9/9/9
f 8/8/8 6/6/6 35/42/35
f 6/6/6 3/3/3 35/42/35
f 36/43/36 35/42/35 3/3/3
f 36/43/36 37/44/37 35/42/35
f 37/44/37 38/45/38 35/42/35
f 37/44/37 39/46/39 38/45/38
f 40/47/40 38/45/38 39/46/39
f 41/48/41 42/49/42 43/50/43
f 44/51/44 43/50/43 42/49/42
f 43/50/43 44/51/44 45/52/45
f 44/51/44 42/49/42 37/53/37
f 39/54/39 37/53/37 42/49/42
f 37/53/37 36/55/36 44/51/44
f 46/56/46 44/51/44 36/55/36
f 46/56/46 45/52/45 44/51/44
f 36/55/36 3/57/3 46/56/46
f 46/56/46 3/57/3 2/58/2
f 46/56/46 2/58/2 24/59/24
f 47/60/47 45/52/45 46/56/46
f 47/60/47 46/56/46 24/59/24
f 48/61/48 45/52/45 47/60/47
f 24/59/24 49/62/49 47/60/47
f 49/62/49 24/59/24 27/63/27
f 27/63/27 5/64/5 49/62/49
f 31/65/31 49/62/49 5/64/5
f 31/65/31 32/66/32 49/62/49
f 50/67/50 47/60/47 49/62/49
f 50/67/50 49/62/49 32/66/32
f 50/67/50 48/61/48 47/60/47
f 32/66/32 33/68/33 50/67/50
f 50/67/50 51/69/51 48/61/48
f 51/69/51 50/67/50 33/68/33
f 52/70/52 48/61/48 51/69/51
f 33/68/33 34/71/34 51/69/51
f 53/72/53 52/70/52 51/69/51
f 34/71/34 53/72/53 51/69/51
f 54/73/54 52/70/52 53/72/53
f 53/72/53 11/74/11 54/73/54
f 11/74/11 12/75/12 54/73/54
f 13/76/13 11/74/11 53/72/53
f 40/77/40 41/48/41 38/78/38
f 43/50/43 38/78/38 41/48/41
f 38/78/38 43/50/43 45/52/45
f 35/79/35 45/52/45 8/80/8
f 48/61/48 8/80/8 45/52/45
f 8/80/8 48/61/48 10/81/10
f 52/70/52 10/81/10 48/61/48
f 54/73/54 10/81/10 52/70/52
f 54/73/54 12/82/12 10/81/10
f 41/48/41 40/83/40 42/49/42
f 40/83/40 39/84/39 42/49/42
f 58/85/55 61/86/56 60/87/57
f 58/85/55 62/88/58 61/86/56
f 58/85/55 57/89/59 62/88/58
f 62/88/58 57/89/59 63/90/60
f 57/89/59 56/91/61 63/90/60
f 63/90/60 56/91/61 55/92/62
f 64/93/63 63/90/60 55/92/62
f 63/90/60 65/94/64 62/88/58
f 65/94/64 63/90/60 64/93/63
f 68/95/65 62/88/58 65/94/64
f 61/86/56 62/88/58 68/95/65
f 65/94/64 64/93/63 69/96/66
f 65/94/64 69/96/66 68/95/65
f 64/93/63 66/97/67 69/96/66
f 61/86/56 68/95/65 72/98/68
f 72/98/68 68/95/65 69/96/66
f 69/96/66 66/97/67 73/99/69
f 70/100/70 73/99/69 66/97/67
f 72/98/68 69/96/66 73/99/69
f 61/86/56 72/98/68 74/101/71
f 74/101/71 72/98/68 73/99/69
f 61/86/56 74/101/71 60/87/57
f 60/87/57 74/101/71 75/102/72
f 74/101/71 73/99/69 75/102/72
f 60/87/57 75/102/72 59/103/73
f 76/104/74 73/99/69 70/100/70
f 76/104/74 70/100/70 71/105/75
f 75/102/72 73/99/69 76/104/74
f 77/106/76 59/103/73 75/102/72
f 67/107/77 59/103/73 77/106/76
f 78/108/78 76/104/74 71/105/75
f 80/109/79 75/102/72 76/104/74
f 77/106/76 75/102/72 80/109/79
f 80/109/79 76/104/74 78/108/78
f 81/110/80 80/109/79 78/108/78
f 77/106/76 80/109/79 81/110/80
f 81/110/80 78/108/78 82/111/81
f 82/111/81 78/108/78 79/112/82
f 77/106/76 81/110/80 83/113/83
f 83/113/83 81/110/80 82/111/81
f 67/107/77 77/106/76 84/114/84
f 84/114/84 77/106/76 83/113/83
f 85/115/85 82/111/81 79/112/82
f 83/113/83 82/111/81 85/115/85
f 86/116/86 67/107/77 84/114/84
f 71/117/87 67/107/77 86/116/86
f 84/114/84 83/113/83 87/118/88
f 87/118/88 83/113/83 85/115/85
f 86/116/86 84/114/84 87/118/88
f 85/115/85 79/112/82 88/119/89
f 87/118/88 85/115/85 88/119/89
f 89/120/90 87/118/88 88/119/89
f 86/116/86 87/118/88 89/120/90
f 89/120/90 88/119/89 90/121/91
f 92/122/92 71/117/87 86/116/86
f 93/123/93 86/116/86 89/120/90
f 92/122/92 86/116/86 93/123/93
f 96/124/94 89/120/90 90/121/91
f 93/123/93 89/120/90 96/124/94
f 97/125/95 92/122/92 93/123/93
f 97/125/95 91/126/96 92/122/92
f 99/127/97 93/123/93 96/124/94
f 97/125/95 93/123/93 99/127/97
f 99/127/97 96/124/94 98/128/98
f 94/129/99 100/130/100 98/128/98
f 91/126/96 97/125/95 101/131/101
f 97/125/95 99/127/97 101/131/101
f 102/132/102 99/127/97 98/128/98
f 102/132/102 101/131/101 99/127/97
f 103/133/103 102/132/102 98/128/98
f 101/131/101 102/132/102 103/133/103
f 103/133/103 98/128/98 100/130/100
f 91/126/96 101/131/101 104/134/104
f 104/134/104 101/131/101 103/133/103
f 95/135/105 91/126/96 104/134/104
f 106/136/106 103/133/103 100/130/100
f 104/134/104 103/133/103 106/136/106
f 106/136/106 100/130/100 105/137/107
f 95/135/105 104/134/104 107/138/108
f 107/138/108 104/134/104 106/136/106
f 108/139/109 106/136/106 105/137/107
f 107/138/108 106/136/106 108/139/109
f 109/140/110 108/139/109 105/137/107
f 110/141/111 95/135/105 107/138/108
f 111/142/112 108/139/109 109/140/110
f 112/143/113 107/138/108 108/139/109
f 110/141/111 107/138/108 112/143/113
f 112/143/113 108/139/109 113/144/114
f 110/141/111 112/143/113 113/144/114
f 111/142/112 113/144/114 108/139/109
f 114/145/115 110/141/111 113/144/114
f 17/14/14 29/32/29 19/18/18 16/15/15
f 29/32/29 14/22/22 15/19/19 19/18/18
