# Blender 4.4.0
# www.blender.org
mtllib ultrakillDoor.mtl
o Door_right__2663671
v 0.178552 -0.083884 -3.750026
v 0.178552 3.916116 -3.750026
v 0.178552 -0.083884 -1.250026
v 0.178552 3.916116 -1.250026
v 0.178552 -0.083884 -0.000026
v 0.178552 7.916116 -3.750027
v 0.178552 3.916116 -0.000027
v 0.178552 7.916116 -1.250027
v 0.178552 7.916116 -0.000027
v -0.221448 -0.083884 -3.750026
v -0.221448 -0.083884 -1.250026
v -0.221448 -0.083884 -0.000026
v -0.221448 3.916116 -3.750026
v -0.221448 3.916116 -1.250026
v -0.221448 7.916116 -3.750027
v -0.221448 3.916116 -0.000027
v -0.221448 7.916116 -1.250027
v -0.221448 7.916116 -0.000027
vn 1.0000 -0.0000 -0.0000
vn -0.0000 -1.0000 -0.0000
vn -1.0000 -0.0000 -0.0000
vn -0.0000 -0.0000 1.0000
vn -0.0000 1.0000 -0.0000
vn -0.0000 -0.0000 -1.0000
vt 0.992400 0.004600
vt 0.500700 0.004600
vt 0.992400 0.659300
vt 0.500700 0.659300
vt 0.992400 0.986600
vt 0.009000 0.004600
vt 0.500700 0.986600
vt 0.009000 0.659300
vt 0.009000 0.986600
vt 1.868000 -1.196000
vt 1.817300 -1.196000
vt 1.817300 -1.848700
vt 1.868000 -1.848700
vt 1.817300 -2.175000
vt 1.868000 -2.175000
vt 1.750800 -1.130700
vt 1.750800 -2.175000
vt 1.801400 -2.175000
vt 1.801400 -1.130700
vt 1.750800 -0.086500
vt 1.801400 -0.086500
s 1
usemtl Door_right__2663671_default
f 1/1/1 2/2/1 3/3/1
f 2/2/1 4/4/1 3/3/1
f 3/3/1 4/4/1 5/5/1
f 2/2/1 6/6/1 4/4/1
f 4/4/1 7/7/1 5/5/1
f 6/6/1 8/8/1 4/4/1
f 4/4/1 8/8/1 7/7/1
f 8/8/1 9/9/1 7/7/1
f 10/10/2 1/11/2 3/12/2
f 11/13/2 10/10/2 3/12/2
f 11/13/2 3/12/2 5/14/2
f 12/15/2 11/13/2 5/14/2
f 13/2/3 10/1/3 11/3/3
f 14/4/3 13/2/3 11/3/3
f 14/4/3 11/3/3 12/5/3
f 15/6/3 13/2/3 14/4/3
f 16/7/3 14/4/3 12/5/3
f 17/8/3 15/6/3 14/4/3
f 17/8/3 14/4/3 16/7/3
f 18/9/3 17/8/3 16/7/3
f 7/16/4 9/17/4 18/18/4
f 16/19/4 7/16/4 18/18/4
f 7/16/4 16/19/4 5/20/4
f 16/19/4 12/21/4 5/20/4
f 18/14/5 9/15/5 17/12/5
f 9/15/5 8/13/5 17/12/5
f 17/12/5 8/13/5 15/11/5
f 8/13/5 6/10/5 15/11/5
f 6/18/6 2/19/6 15/17/6
f 2/19/6 13/16/6 15/17/6
f 13/16/6 2/19/6 1/21/6
f 10/20/6 13/16/6 1/21/6
